<svg width="221" height="215" viewBox="0 0 221 215" fill="none" xmlns="http://www.w3.org/2000/svg">
<path d="M157.656 2.10957C142.999 6.5907 132.025 17.469 126.766 30.8377L109.952 66.5478L109.924 66.4571L76.0149 46.2548C64.1795 38.1124 48.9988 35.2303 34.3417 39.7114C8.59394 47.5833 -5.7906 75.1884 2.21395 101.37C9.24753 124.376 33.7048 135.701 52.656 147.971C71.5391 160.193 90.4188 172.413 109.299 184.637L151.684 212.071C152.831 212.813 153.975 213.554 155.123 214.297L155.151 214.387C155.687 213.13 156.221 211.876 156.757 210.619C163.356 195.138 169.954 179.658 176.554 164.174C185.372 143.482 194.193 122.793 203.01 102.102C211.862 81.3352 225.805 58.2698 218.77 35.2614C210.766 9.07969 183.404 -5.7623 157.656 2.10957Z" fill="#448585"/>
</svg>
