<svg width="54" height="56" viewBox="0 0 54 56" fill="none" xmlns="http://www.w3.org/2000/svg">
<path d="M40.8801 25.3601C39.9201 25.9468 38.9334 26.4534 37.9201 26.8801C36.9601 27.2534 35.9734 27.5468 34.9601 27.7601C36.9334 28.0801 38.9067 28.8534 40.8801 30.0801L53.1201 37.3601L48.0001 46.0801L35.7601 38.8001C34.8001 38.2134 33.8934 37.6268 33.0401 37.0401C32.1867 36.4001 31.4401 35.7068 30.8001 34.9601C31.4401 36.8268 31.7601 38.8534 31.7601 41.0401V55.4401H21.2801V41.2001C21.2801 40.1334 21.3334 39.0934 21.4401 38.0801C21.6001 37.0134 21.8401 36.0268 22.1601 35.1201C20.9334 36.5068 19.3334 37.7334 17.3601 38.8001L5.20006 45.9201L5.87702e-05 37.2001L12.2401 30.0801C13.2534 29.4934 14.2401 29.0134 15.2001 28.6401C16.2134 28.2134 17.2267 27.9201 18.2401 27.7601C17.2267 27.6001 16.2134 27.3068 15.2001 26.8801C14.1867 26.4534 13.2001 25.9468 12.2401 25.3601L5.87702e-05 18.0801L5.12006 9.44009L17.3601 16.7201C19.3334 17.7868 20.9601 19.0401 22.2401 20.4801C21.6001 18.6668 21.2801 16.6668 21.2801 14.4801V8.96454e-05H31.7601V14.3201C31.7601 15.3868 31.6801 16.4534 31.5201 17.5201C31.4134 18.5334 31.2001 19.4934 30.8801 20.4001C31.5201 19.6534 32.2401 18.9868 33.0401 18.4001C33.8934 17.8134 34.8001 17.2534 35.7601 16.7201L47.9201 9.60009L53.1201 18.2401L40.8801 25.3601Z" fill="white"/>
</svg>
