<svg width="386" height="120" viewBox="0 0 386 120" fill="none" xmlns="http://www.w3.org/2000/svg">
<path d="M88.7685 14.8841C81.9281 14.8841 75.8251 18.0951 71.8362 23.1146L60 36.1616V36.1193L48.1637 23.0723C44.1748 18.0528 38.0718 14.8418 31.2314 14.8418C19.2151 14.8418 9.47363 24.7467 9.47363 36.9656C9.47363 47.7023 18.4342 55.7273 24.9216 63.4367C31.3861 71.1172 37.8494 78.7964 44.3126 86.4769L58.8226 103.717C59.2155 104.183 59.6071 104.649 60 105.115V105.158C60.3928 104.691 60.7844 104.225 61.1773 103.759C66.0135 98.0127 70.8498 92.2666 75.6873 86.5192C82.1505 78.8388 88.615 71.1595 95.0783 63.479C101.566 55.7708 110.526 47.7458 110.526 37.0079C110.526 24.789 100.785 14.8841 88.7685 14.8841Z" fill="#448585"/>
<path d="M71.14 79.42C73.62 79.42 75.52 78.82 76.84 77.62C78.16 76.4067 78.82 74.6933 78.82 72.48C78.82 71.7067 78.68 71.0133 78.4 70.4C78.1333 69.7733 77.7333 69.24 77.2 68.8C76.68 68.36 76.0333 68.02 75.26 67.78C74.5 67.54 73.6267 67.42 72.64 67.42H66.14L64.66 79.42H71.14ZM67.76 54.28L66.32 65.98H71.9C73.1933 65.98 74.3133 65.7867 75.26 65.4C76.2067 65.0133 76.9867 64.5067 77.6 63.88C78.2133 63.24 78.6667 62.5133 78.96 61.7C79.2533 60.8867 79.4 60.0467 79.4 59.18C79.4 57.5933 78.9 56.38 77.9 55.54C76.9133 54.7 75.3867 54.28 73.32 54.28H67.76ZM73.5 52.7C74.86 52.7 76.0333 52.84 77.02 53.12C78.0067 53.4 78.8267 53.8067 79.48 54.34C80.1333 54.86 80.6133 55.5 80.92 56.26C81.24 57.02 81.4 57.88 81.4 58.84C81.4 59.7467 81.2533 60.6133 80.96 61.44C80.68 62.2533 80.2667 63 79.72 63.68C79.1867 64.3467 78.5267 64.9267 77.74 65.42C76.9667 65.9133 76.0933 66.28 75.12 66.52C76.9733 66.8267 78.38 67.4867 79.34 68.5C80.3133 69.5 80.8 70.8067 80.8 72.42C80.8 73.7267 80.5733 74.9133 80.12 75.98C79.68 77.0333 79.0333 77.9333 78.18 78.68C77.34 79.4267 76.3133 80 75.1 80.4C73.8867 80.8 72.5133 81 70.98 81H62.48L65.96 52.7H73.5ZM94.6631 62.22C93.5965 62.22 92.6298 62.4467 91.7631 62.9C90.9098 63.34 90.1498 63.94 89.4831 64.7C88.8298 65.46 88.2765 66.34 87.8231 67.34C87.3831 68.3267 87.0565 69.36 86.8431 70.44C88.5365 70.2533 89.9965 70.04 91.2231 69.8C92.4498 69.5467 93.4898 69.2867 94.3431 69.02C95.1965 68.74 95.8898 68.44 96.4231 68.12C96.9565 67.8 97.3631 67.4733 97.6431 67.14C97.9365 66.7933 98.1298 66.44 98.2231 66.08C98.3298 65.72 98.3831 65.3467 98.3831 64.96C98.3831 64.68 98.3165 64.38 98.1831 64.06C98.0631 63.7267 97.8565 63.4267 97.5631 63.16C97.2698 62.8933 96.8831 62.6733 96.4031 62.5C95.9365 62.3133 95.3565 62.22 94.6631 62.22ZM99.5631 77.3C98.9098 77.9933 98.2698 78.5933 97.6431 79.1C97.0298 79.5933 96.4031 80 95.7631 80.32C95.1365 80.64 94.4831 80.8733 93.8031 81.02C93.1231 81.18 92.3965 81.26 91.6231 81.26C90.5165 81.26 89.5298 81.08 88.6631 80.72C87.8098 80.3467 87.0898 79.8267 86.5031 79.16C85.9165 78.48 85.4698 77.66 85.1631 76.7C84.8565 75.7267 84.7031 74.64 84.7031 73.44C84.7031 72.44 84.8031 71.4333 85.0031 70.42C85.2031 69.4067 85.4965 68.4333 85.8831 67.5C86.2831 66.5667 86.7698 65.6933 87.3431 64.88C87.9298 64.0667 88.5965 63.36 89.3431 62.76C90.0898 62.16 90.9165 61.6867 91.8231 61.34C92.7298 60.9933 93.7098 60.82 94.7631 60.82C95.7365 60.82 96.5565 60.96 97.2231 61.24C97.9031 61.5067 98.4498 61.8467 98.8631 62.26C99.2898 62.66 99.5965 63.1 99.7831 63.58C99.9698 64.0467 100.063 64.4867 100.063 64.9C100.063 65.4467 99.9898 65.9667 99.8431 66.46C99.6965 66.9533 99.4365 67.42 99.0631 67.86C98.6898 68.3 98.1831 68.7133 97.5431 69.1C96.9031 69.4867 96.0831 69.8467 95.0831 70.18C94.0965 70.5 92.9098 70.7933 91.5231 71.06C90.1365 71.3267 88.5098 71.56 86.6431 71.76C86.6165 72.0267 86.5898 72.3 86.5631 72.58C86.5498 72.86 86.5431 73.1333 86.5431 73.4C86.5431 75.3867 86.9898 76.94 87.8831 78.06C88.7898 79.18 90.1498 79.74 91.9631 79.74C92.6698 79.74 93.3031 79.6667 93.8631 79.52C94.4365 79.36 94.9431 79.16 95.3831 78.92C95.8365 78.68 96.2298 78.4267 96.5631 78.16C96.9098 77.8933 97.2165 77.64 97.4831 77.4C97.7498 77.16 97.9765 76.9667 98.1631 76.82C98.3631 76.66 98.5431 76.58 98.7031 76.58C98.8631 76.58 99.0031 76.6467 99.1231 76.78L99.5631 77.3ZM118.113 61.1L118.013 61.9C118 62.1533 117.873 62.4067 117.633 62.66L104.213 79.5H115.393L115.233 81H101.753L101.833 80.24C101.833 80.1333 101.866 80.0133 101.933 79.88C102 79.7467 102.086 79.62 102.193 79.5L115.653 62.6H104.593L104.793 61.1H118.113ZM122.437 76.9C123.023 77.9533 123.743 78.6933 124.597 79.12C125.45 79.5467 126.337 79.76 127.257 79.76C128.097 79.76 128.877 79.5933 129.597 79.26C130.33 78.9133 130.99 78.4467 131.577 77.86C132.177 77.2733 132.703 76.5933 133.157 75.82C133.623 75.0333 134.01 74.2067 134.317 73.34C134.637 72.4733 134.877 71.5867 135.037 70.68C135.21 69.76 135.297 68.8667 135.297 68C135.297 66.2133 134.957 64.8267 134.277 63.84C133.597 62.84 132.603 62.34 131.297 62.34C130.537 62.34 129.77 62.5533 128.997 62.98C128.237 63.4067 127.503 64.0067 126.797 64.78C126.09 65.5533 125.423 66.4867 124.797 67.58C124.17 68.66 123.617 69.8667 123.137 71.2L122.437 76.9ZM123.457 68.02C123.977 66.94 124.557 65.96 125.197 65.08C125.85 64.1867 126.537 63.4267 127.257 62.8C127.977 62.16 128.73 61.6667 129.517 61.32C130.303 60.9733 131.103 60.8 131.917 60.8C132.783 60.8 133.543 60.9667 134.197 61.3C134.85 61.6333 135.397 62.1067 135.837 62.72C136.277 63.32 136.61 64.0533 136.837 64.92C137.063 65.7867 137.177 66.7533 137.177 67.82C137.177 68.8467 137.07 69.8933 136.857 70.96C136.643 72.0133 136.337 73.04 135.937 74.04C135.55 75.0267 135.07 75.96 134.497 76.84C133.937 77.72 133.297 78.4867 132.577 79.14C131.857 79.7933 131.063 80.3133 130.197 80.7C129.343 81.0733 128.437 81.26 127.477 81.26C126.397 81.26 125.397 81.02 124.477 80.54C123.57 80.06 122.83 79.3533 122.257 78.42L121.077 88.04H119.237L122.517 61.04H123.377C123.843 61.04 124.077 61.28 124.077 61.76L123.457 68.02ZM145.222 61.1L142.802 81H140.942L143.362 61.1H145.222ZM146.682 54.24C146.682 54.48 146.628 54.7067 146.522 54.92C146.428 55.12 146.302 55.3 146.142 55.46C145.982 55.62 145.795 55.7467 145.582 55.84C145.382 55.9333 145.175 55.98 144.962 55.98C144.735 55.98 144.522 55.9333 144.322 55.84C144.122 55.7467 143.948 55.62 143.802 55.46C143.655 55.3 143.535 55.12 143.442 54.92C143.348 54.7067 143.302 54.48 143.302 54.24C143.302 54 143.348 53.7733 143.442 53.56C143.535 53.3467 143.655 53.16 143.802 53C143.962 52.8267 144.142 52.6933 144.342 52.6C144.542 52.5067 144.755 52.46 144.982 52.46C145.195 52.46 145.402 52.5067 145.602 52.6C145.815 52.6933 146.002 52.82 146.162 52.98C146.322 53.14 146.448 53.3333 146.542 53.56C146.635 53.7733 146.682 54 146.682 54.24ZM159.038 62.22C157.971 62.22 157.005 62.4467 156.138 62.9C155.285 63.34 154.525 63.94 153.858 64.7C153.205 65.46 152.651 66.34 152.198 67.34C151.758 68.3267 151.431 69.36 151.218 70.44C152.911 70.2533 154.371 70.04 155.598 69.8C156.825 69.5467 157.865 69.2867 158.718 69.02C159.571 68.74 160.265 68.44 160.798 68.12C161.331 67.8 161.738 67.4733 162.018 67.14C162.311 66.7933 162.505 66.44 162.598 66.08C162.705 65.72 162.758 65.3467 162.758 64.96C162.758 64.68 162.691 64.38 162.558 64.06C162.438 63.7267 162.231 63.4267 161.938 63.16C161.645 62.8933 161.258 62.6733 160.778 62.5C160.311 62.3133 159.731 62.22 159.038 62.22ZM163.938 77.3C163.285 77.9933 162.645 78.5933 162.018 79.1C161.405 79.5933 160.778 80 160.138 80.32C159.511 80.64 158.858 80.8733 158.178 81.02C157.498 81.18 156.771 81.26 155.998 81.26C154.891 81.26 153.905 81.08 153.038 80.72C152.185 80.3467 151.465 79.8267 150.878 79.16C150.291 78.48 149.845 77.66 149.538 76.7C149.231 75.7267 149.078 74.64 149.078 73.44C149.078 72.44 149.178 71.4333 149.378 70.42C149.578 69.4067 149.871 68.4333 150.258 67.5C150.658 66.5667 151.145 65.6933 151.718 64.88C152.305 64.0667 152.971 63.36 153.718 62.76C154.465 62.16 155.291 61.6867 156.198 61.34C157.105 60.9933 158.085 60.82 159.138 60.82C160.111 60.82 160.931 60.96 161.598 61.24C162.278 61.5067 162.825 61.8467 163.238 62.26C163.665 62.66 163.971 63.1 164.158 63.58C164.345 64.0467 164.438 64.4867 164.438 64.9C164.438 65.4467 164.365 65.9667 164.218 66.46C164.071 66.9533 163.811 67.42 163.438 67.86C163.065 68.3 162.558 68.7133 161.918 69.1C161.278 69.4867 160.458 69.8467 159.458 70.18C158.471 70.5 157.285 70.7933 155.898 71.06C154.511 71.3267 152.885 71.56 151.018 71.76C150.991 72.0267 150.965 72.3 150.938 72.58C150.925 72.86 150.918 73.1333 150.918 73.4C150.918 75.3867 151.365 76.94 152.258 78.06C153.165 79.18 154.525 79.74 156.338 79.74C157.045 79.74 157.678 79.6667 158.238 79.52C158.811 79.36 159.318 79.16 159.758 78.92C160.211 78.68 160.605 78.4267 160.938 78.16C161.285 77.8933 161.591 77.64 161.858 77.4C162.125 77.16 162.351 76.9667 162.538 76.82C162.738 76.66 162.918 76.58 163.078 76.58C163.238 76.58 163.378 76.6467 163.498 76.78L163.938 77.3ZM182.192 77.36C181.485 78.1467 180.812 78.7933 180.172 79.3C179.545 79.8067 178.925 80.2067 178.312 80.5C177.712 80.7933 177.099 80.9933 176.472 81.1C175.845 81.2067 175.179 81.26 174.472 81.26C173.325 81.26 172.325 81.0667 171.472 80.68C170.632 80.28 169.932 79.7267 169.372 79.02C168.812 78.3133 168.392 77.4733 168.112 76.5C167.832 75.5267 167.692 74.4667 167.692 73.32C167.692 72.2667 167.799 71.2267 168.012 70.2C168.239 69.16 168.559 68.1733 168.972 67.24C169.385 66.3067 169.885 65.4467 170.472 64.66C171.059 63.8733 171.719 63.1933 172.452 62.62C173.185 62.0467 173.979 61.6 174.832 61.28C175.699 60.9467 176.619 60.78 177.592 60.78C178.245 60.78 178.832 60.8467 179.352 60.98C179.885 61.1 180.372 61.28 180.812 61.52C181.252 61.7467 181.652 62.0267 182.012 62.36C182.372 62.6933 182.705 63.0667 183.012 63.48L182.452 64.14C182.332 64.2867 182.192 64.36 182.032 64.36C181.899 64.36 181.732 64.2533 181.532 64.04C181.345 63.8267 181.085 63.6 180.752 63.36C180.432 63.1067 180.012 62.8733 179.492 62.66C178.972 62.4467 178.319 62.34 177.532 62.34C176.412 62.34 175.365 62.64 174.392 63.24C173.432 63.84 172.592 64.6467 171.872 65.66C171.165 66.6733 170.605 67.8467 170.192 69.18C169.792 70.5 169.592 71.88 169.592 73.32C169.592 74.24 169.692 75.0933 169.892 75.88C170.105 76.6667 170.425 77.3467 170.852 77.92C171.292 78.4933 171.839 78.94 172.492 79.26C173.145 79.58 173.919 79.74 174.812 79.74C175.519 79.74 176.152 79.6667 176.712 79.52C177.272 79.36 177.765 79.1667 178.192 78.94C178.632 78.7133 179.012 78.4667 179.332 78.2C179.665 77.92 179.959 77.6667 180.212 77.44C180.465 77.2133 180.679 77.0267 180.852 76.88C181.039 76.72 181.205 76.64 181.352 76.64C181.499 76.64 181.639 76.7067 181.772 76.84L182.192 77.36ZM200.535 61.1L200.435 61.9C200.422 62.1533 200.295 62.4067 200.055 62.66L186.635 79.5H197.815L197.655 81H184.175L184.255 80.24C184.255 80.1333 184.288 80.0133 184.355 79.88C184.422 79.7467 184.508 79.62 184.615 79.5L198.075 62.6H187.015L187.215 61.1H200.535ZM205.918 67.5C206.452 66.4467 207.045 65.5067 207.698 64.68C208.365 63.84 209.065 63.1333 209.798 62.56C210.532 61.9867 211.285 61.5533 212.058 61.26C212.832 60.9533 213.612 60.8 214.398 60.8C215.252 60.8 215.978 60.9667 216.578 61.3C217.192 61.6333 217.678 62.12 218.038 62.76C218.412 63.4 218.652 64.1867 218.758 65.12C218.878 66.04 218.865 67.0933 218.718 68.28L217.218 81H215.338L216.838 68.28C217.065 66.3867 216.938 64.9333 216.458 63.92C215.978 62.9067 215.078 62.4 213.758 62.4C213.012 62.4 212.258 62.5933 211.498 62.98C210.752 63.3533 210.018 63.8933 209.298 64.6C208.592 65.2933 207.925 66.14 207.298 67.14C206.672 68.1267 206.118 69.24 205.638 70.48L204.418 81H202.538L204.918 61.04H205.778C206.245 61.04 206.478 61.28 206.478 61.76L205.918 67.5ZM227.643 61.1L225.223 81H223.363L225.783 61.1H227.643ZM229.103 54.24C229.103 54.48 229.05 54.7067 228.943 54.92C228.85 55.12 228.723 55.3 228.563 55.46C228.403 55.62 228.217 55.7467 228.003 55.84C227.803 55.9333 227.597 55.98 227.383 55.98C227.157 55.98 226.943 55.9333 226.743 55.84C226.543 55.7467 226.37 55.62 226.223 55.46C226.077 55.3 225.957 55.12 225.863 54.92C225.77 54.7067 225.723 54.48 225.723 54.24C225.723 54 225.77 53.7733 225.863 53.56C225.957 53.3467 226.077 53.16 226.223 53C226.383 52.8267 226.563 52.6933 226.763 52.6C226.963 52.5067 227.177 52.46 227.403 52.46C227.617 52.46 227.823 52.5067 228.023 52.6C228.237 52.6933 228.423 52.82 228.583 52.98C228.743 53.14 228.87 53.3333 228.963 53.56C229.057 53.7733 229.103 54 229.103 54.24ZM241.46 62.22C240.393 62.22 239.427 62.4467 238.56 62.9C237.707 63.34 236.947 63.94 236.28 64.7C235.627 65.46 235.073 66.34 234.62 67.34C234.18 68.3267 233.853 69.36 233.64 70.44C235.333 70.2533 236.793 70.04 238.02 69.8C239.247 69.5467 240.287 69.2867 241.14 69.02C241.993 68.74 242.687 68.44 243.22 68.12C243.753 67.8 244.16 67.4733 244.44 67.14C244.733 66.7933 244.927 66.44 245.02 66.08C245.127 65.72 245.18 65.3467 245.18 64.96C245.18 64.68 245.113 64.38 244.98 64.06C244.86 63.7267 244.653 63.4267 244.36 63.16C244.067 62.8933 243.68 62.6733 243.2 62.5C242.733 62.3133 242.153 62.22 241.46 62.22ZM246.36 77.3C245.707 77.9933 245.067 78.5933 244.44 79.1C243.827 79.5933 243.2 80 242.56 80.32C241.933 80.64 241.28 80.8733 240.6 81.02C239.92 81.18 239.193 81.26 238.42 81.26C237.313 81.26 236.327 81.08 235.46 80.72C234.607 80.3467 233.887 79.8267 233.3 79.16C232.713 78.48 232.267 77.66 231.96 76.7C231.653 75.7267 231.5 74.64 231.5 73.44C231.5 72.44 231.6 71.4333 231.8 70.42C232 69.4067 232.293 68.4333 232.68 67.5C233.08 66.5667 233.567 65.6933 234.14 64.88C234.727 64.0667 235.393 63.36 236.14 62.76C236.887 62.16 237.713 61.6867 238.62 61.34C239.527 60.9933 240.507 60.82 241.56 60.82C242.533 60.82 243.353 60.96 244.02 61.24C244.7 61.5067 245.247 61.8467 245.66 62.26C246.087 62.66 246.393 63.1 246.58 63.58C246.767 64.0467 246.86 64.4867 246.86 64.9C246.86 65.4467 246.787 65.9667 246.64 66.46C246.493 66.9533 246.233 67.42 245.86 67.86C245.487 68.3 244.98 68.7133 244.34 69.1C243.7 69.4867 242.88 69.8467 241.88 70.18C240.893 70.5 239.707 70.7933 238.32 71.06C236.933 71.3267 235.307 71.56 233.44 71.76C233.413 72.0267 233.387 72.3 233.36 72.58C233.347 72.86 233.34 73.1333 233.34 73.4C233.34 75.3867 233.787 76.94 234.68 78.06C235.587 79.18 236.947 79.74 238.76 79.74C239.467 79.74 240.1 79.6667 240.66 79.52C241.233 79.36 241.74 79.16 242.18 78.92C242.633 78.68 243.027 78.4267 243.36 78.16C243.707 77.8933 244.013 77.64 244.28 77.4C244.547 77.16 244.773 76.9667 244.96 76.82C245.16 76.66 245.34 76.58 245.5 76.58C245.66 76.58 245.8 76.6467 245.92 76.78L246.36 77.3Z" fill="white"/>
</svg>
