<svg width="106" height="34" viewBox="0 0 106 34" fill="none" xmlns="http://www.w3.org/2000/svg">
<path d="M24.9987 25.031C26.0802 23.9494 26.446 22.4231 26.0961 21.0408C27.4795 21.3923 29.0075 21.0268 30.09 19.9442C31.7244 18.3099 31.7244 15.6601 30.09 14.0257C29.0139 12.9496 27.4975 12.582 26.1206 12.9231C26.4276 11.5681 26.0536 10.09 24.9987 9.03499C23.9147 7.951 22.384 7.58597 20.9991 7.9399C21.3661 6.54719 21.0037 5.00217 19.9118 3.91033C18.2775 2.27598 15.6277 2.27598 13.9933 3.91033C12.908 4.99568 12.5434 6.52885 12.8996 7.91506C11.5422 7.60439 10.0599 7.9777 9.00264 9.03499C7.94756 10.0901 7.5736 11.5683 7.88077 12.9234C6.50352 12.5818 4.98647 12.9492 3.90997 14.0257C2.27562 15.6601 2.27562 18.3099 3.90997 19.9442C4.99285 21.0271 6.52154 21.3925 7.90527 21.0404C7.5552 22.4229 7.92099 23.9493 9.00264 25.031C10.0555 26.0838 11.5297 26.4584 12.8824 26.1548C12.5557 27.5226 12.926 29.023 13.9933 30.0904C15.6277 31.7247 18.2775 31.7247 19.9118 30.0904C20.9855 29.0167 21.3538 27.5049 21.0169 26.1305C22.397 26.4769 23.9193 26.1103 24.9987 25.031Z" fill="#448585"/>
<path d="M20.9371 26.9256C21.9291 26.9256 22.6891 26.6856 23.2171 26.2056C23.7451 25.7203 24.0091 25.035 24.0091 24.1496C24.0091 23.8403 23.9531 23.563 23.8411 23.3176C23.7344 23.067 23.5744 22.8536 23.3611 22.6776C23.1531 22.5016 22.8944 22.3656 22.5851 22.2696C22.2811 22.1736 21.9317 22.1256 21.5371 22.1256H18.9371L18.3451 26.9256H20.9371ZM19.5851 16.8696L19.0091 21.5496H21.2411C21.7584 21.5496 22.2064 21.4723 22.5851 21.3176C22.9637 21.163 23.2757 20.9603 23.5211 20.7096C23.7664 20.4536 23.9477 20.163 24.0651 19.8376C24.1824 19.5123 24.2411 19.1763 24.2411 18.8296C24.2411 18.195 24.0411 17.7096 23.6411 17.3736C23.2464 17.0376 22.6357 16.8696 21.8091 16.8696H19.5851ZM21.8811 16.2376C22.4251 16.2376 22.8944 16.2936 23.2891 16.4056C23.6837 16.5176 24.0117 16.6803 24.2731 16.8936C24.5344 17.1016 24.7264 17.3576 24.8491 17.6616C24.9771 17.9656 25.0411 18.3096 25.0411 18.6936C25.0411 19.0563 24.9824 19.4029 24.8651 19.7336C24.7531 20.059 24.5877 20.3576 24.3691 20.6296C24.1557 20.8963 23.8917 21.1283 23.5771 21.3256C23.2677 21.523 22.9184 21.6696 22.5291 21.7656C23.2704 21.8883 23.8331 22.1523 24.2171 22.5576C24.6064 22.9576 24.8011 23.4803 24.8011 24.1256C24.8011 24.6483 24.7104 25.123 24.5291 25.5496C24.3531 25.971 24.0944 26.331 23.7531 26.6296C23.4171 26.9283 23.0064 27.1576 22.5211 27.3176C22.0357 27.4776 21.4864 27.5576 20.8731 27.5576H17.4731L18.8651 16.2376H21.8811ZM30.3463 20.0456C29.9197 20.0456 29.533 20.1363 29.1863 20.3176C28.845 20.4936 28.541 20.7336 28.2743 21.0376C28.013 21.3416 27.7917 21.6936 27.6103 22.0936C27.4343 22.4883 27.3037 22.9016 27.2183 23.3336C27.8957 23.259 28.4797 23.1736 28.9703 23.0776C29.461 22.9763 29.877 22.8723 30.2183 22.7656C30.5597 22.6536 30.837 22.5336 31.0503 22.4056C31.2637 22.2776 31.4263 22.147 31.5383 22.0136C31.6557 21.875 31.733 21.7336 31.7703 21.5896C31.813 21.4456 31.8343 21.2963 31.8343 21.1416C31.8343 21.0296 31.8077 20.9096 31.7543 20.7816C31.7063 20.6483 31.6237 20.5283 31.5063 20.4216C31.389 20.315 31.2343 20.227 31.0423 20.1576C30.8557 20.0829 30.6237 20.0456 30.3463 20.0456ZM32.3063 26.0776C32.045 26.355 31.789 26.595 31.5383 26.7976C31.293 26.995 31.0423 27.1576 30.7863 27.2856C30.5357 27.4136 30.2743 27.507 30.0023 27.5656C29.7303 27.6296 29.4397 27.6616 29.1303 27.6616C28.6877 27.6616 28.293 27.5896 27.9463 27.4456C27.605 27.2963 27.317 27.0883 27.0823 26.8216C26.8477 26.5496 26.669 26.2216 26.5463 25.8376C26.4237 25.4483 26.3623 25.0136 26.3623 24.5336C26.3623 24.1336 26.4023 23.731 26.4823 23.3256C26.5623 22.9203 26.6797 22.531 26.8343 22.1576C26.9943 21.7843 27.189 21.435 27.4183 21.1096C27.653 20.7843 27.9197 20.5016 28.2183 20.2616C28.517 20.0216 28.8477 19.8323 29.2103 19.6936C29.573 19.555 29.965 19.4856 30.3863 19.4856C30.7757 19.4856 31.1037 19.5416 31.3703 19.6536C31.6423 19.7603 31.861 19.8963 32.0263 20.0616C32.197 20.2216 32.3197 20.3976 32.3943 20.5896C32.469 20.7763 32.5063 20.9523 32.5063 21.1176C32.5063 21.3363 32.477 21.5443 32.4183 21.7416C32.3597 21.939 32.2557 22.1256 32.1063 22.3016C31.957 22.4776 31.7543 22.643 31.4983 22.7976C31.2423 22.9523 30.9143 23.0963 30.5143 23.2296C30.1197 23.3576 29.645 23.475 29.0903 23.5816C28.5357 23.6883 27.885 23.7816 27.1383 23.8616C27.1277 23.9683 27.117 24.0776 27.1063 24.1896C27.101 24.3016 27.0983 24.411 27.0983 24.5176C27.0983 25.3123 27.277 25.9336 27.6343 26.3816C27.997 26.8296 28.541 27.0536 29.2663 27.0536C29.549 27.0536 29.8023 27.0243 30.0263 26.9656C30.2557 26.9016 30.4583 26.8216 30.6343 26.7256C30.8157 26.6296 30.973 26.5283 31.1063 26.4216C31.245 26.315 31.3677 26.2136 31.4743 26.1176C31.581 26.0216 31.6717 25.9443 31.7463 25.8856C31.8263 25.8216 31.8983 25.7896 31.9623 25.7896C32.0263 25.7896 32.0823 25.8163 32.1303 25.8696L32.3063 26.0776ZM39.7263 19.5976L39.6863 19.9176C39.681 20.019 39.6303 20.1203 39.5343 20.2216L34.1663 26.9576H38.6383L38.5743 27.5576H33.1823L33.2143 27.2536C33.2143 27.211 33.2277 27.163 33.2543 27.1096C33.281 27.0563 33.3157 27.0056 33.3583 26.9576L38.7423 20.1976H34.3183L34.3983 19.5976H39.7263ZM49.479 20.5736C49.4363 20.6483 49.3776 20.6856 49.303 20.6856C49.2496 20.6856 49.183 20.6536 49.103 20.5896C49.0283 20.5203 48.9243 20.4456 48.791 20.3656C48.663 20.2803 48.5003 20.2056 48.303 20.1416C48.1056 20.0723 47.8603 20.0376 47.567 20.0376C47.295 20.0376 47.0363 20.083 46.791 20.1736C46.551 20.2643 46.3403 20.387 46.159 20.5416C45.983 20.691 45.8416 20.867 45.735 21.0696C45.6336 21.267 45.583 21.4776 45.583 21.7016C45.583 21.9203 45.6336 22.1043 45.735 22.2536C45.8363 22.403 45.9696 22.5336 46.135 22.6456C46.3056 22.7523 46.495 22.8456 46.703 22.9256C46.9163 23.0056 47.135 23.0856 47.359 23.1656C47.583 23.2456 47.799 23.3363 48.007 23.4376C48.2203 23.5336 48.4096 23.651 48.575 23.7896C48.7456 23.9283 48.8816 24.099 48.983 24.3016C49.0843 24.499 49.135 24.739 49.135 25.0216C49.135 25.363 49.0656 25.6936 48.927 26.0136C48.7936 26.3336 48.599 26.619 48.343 26.8696C48.0923 27.115 47.7883 27.3123 47.431 27.4616C47.079 27.611 46.6843 27.6856 46.247 27.6856C45.735 27.6856 45.303 27.5976 44.951 27.4216C44.6043 27.2403 44.3056 27.0056 44.055 26.7176L44.247 26.4456C44.3056 26.3603 44.3776 26.3176 44.463 26.3176C44.5163 26.3176 44.583 26.3603 44.663 26.4456C44.743 26.531 44.8523 26.627 44.991 26.7336C45.1296 26.835 45.3083 26.9283 45.527 27.0136C45.7456 27.099 46.0203 27.1416 46.351 27.1416C46.671 27.1416 46.959 27.091 47.215 26.9896C47.4763 26.883 47.6976 26.739 47.879 26.5576C48.0656 26.3763 48.2096 26.1683 48.311 25.9336C48.4123 25.6936 48.463 25.4403 48.463 25.1736C48.463 24.939 48.4123 24.7416 48.311 24.5816C48.2096 24.4216 48.0736 24.2856 47.903 24.1736C47.7376 24.0563 47.5483 23.9576 47.335 23.8776C47.127 23.7976 46.911 23.7203 46.687 23.6456C46.463 23.5656 46.2443 23.4803 46.031 23.3896C45.823 23.2936 45.6336 23.179 45.463 23.0456C45.2976 22.9123 45.1643 22.7496 45.063 22.5576C44.9616 22.3656 44.911 22.131 44.911 21.8536C44.911 21.5443 44.9776 21.2483 45.111 20.9656C45.2443 20.6776 45.431 20.4243 45.671 20.2056C45.911 19.9816 46.1963 19.8056 46.527 19.6776C46.863 19.5443 47.2283 19.4776 47.623 19.4776C48.071 19.4776 48.4576 19.547 48.783 19.6856C49.1136 19.8243 49.407 20.0323 49.663 20.3096L49.479 20.5736ZM51.4082 26.2216C51.4082 26.1896 51.4082 26.1496 51.4082 26.1016C51.4135 26.0536 51.4189 25.9816 51.4242 25.8856C51.4349 25.7896 51.4482 25.667 51.4642 25.5176C51.4802 25.363 51.5042 25.1683 51.5362 24.9336L52.0802 20.4136H51.0322C50.9789 20.4136 50.9362 20.3976 50.9042 20.3656C50.8722 20.3336 50.8615 20.2883 50.8722 20.2296L50.9122 19.9336L52.1682 19.8376L52.6962 16.9896C52.7069 16.9416 52.7309 16.899 52.7682 16.8616C52.8055 16.8243 52.8509 16.8056 52.9042 16.8056H53.2722L52.8962 19.8456H55.2002L55.1362 20.4136H52.8322L52.2802 24.9096C52.2535 25.1283 52.2295 25.307 52.2082 25.4456C52.1922 25.5843 52.1789 25.699 52.1682 25.7896C52.1629 25.875 52.1575 25.939 52.1522 25.9816C52.1522 26.0243 52.1522 26.0563 52.1522 26.0776C52.1522 26.4243 52.2322 26.675 52.3922 26.8296C52.5575 26.9843 52.7682 27.0616 53.0242 27.0616C53.2002 27.0616 53.3549 27.035 53.4882 26.9816C53.6269 26.923 53.7469 26.8616 53.8482 26.7976C53.9495 26.7283 54.0322 26.667 54.0962 26.6136C54.1602 26.555 54.2082 26.5256 54.2402 26.5256C54.2935 26.5256 54.3335 26.5523 54.3602 26.6056L54.5042 26.9416C54.2909 27.1656 54.0322 27.347 53.7282 27.4856C53.4242 27.619 53.1202 27.6856 52.8162 27.6856C52.3789 27.6856 52.0349 27.5656 51.7842 27.3256C51.5389 27.0856 51.4135 26.7176 51.4082 26.2216ZM57.6373 22.2216C57.856 21.699 58.0933 21.2456 58.3493 20.8616C58.6107 20.4776 58.8853 20.1736 59.1733 19.9496C59.4667 19.7256 59.7707 19.587 60.0853 19.5336C60.4 19.4803 60.72 19.5176 61.0453 19.6456L60.9093 20.3576C60.5467 20.219 60.2027 20.187 59.8773 20.2616C59.552 20.331 59.2453 20.5016 58.9573 20.7736C58.6747 21.0403 58.4107 21.403 58.1653 21.8616C57.9253 22.3203 57.7093 22.8643 57.5173 23.4936L57.0293 27.5576H56.2853L57.2453 19.5736H57.5893C57.776 19.5736 57.8693 19.6696 57.8693 19.8616L57.6373 22.2216ZM65.0495 20.0456C64.6228 20.0456 64.2361 20.1363 63.8895 20.3176C63.5481 20.4936 63.2441 20.7336 62.9775 21.0376C62.7161 21.3416 62.4948 21.6936 62.3135 22.0936C62.1375 22.4883 62.0068 22.9016 61.9215 23.3336C62.5988 23.259 63.1828 23.1736 63.6735 23.0776C64.1641 22.9763 64.5801 22.8723 64.9215 22.7656C65.2628 22.6536 65.5401 22.5336 65.7535 22.4056C65.9668 22.2776 66.1295 22.147 66.2415 22.0136C66.3588 21.875 66.4361 21.7336 66.4735 21.5896C66.5161 21.4456 66.5375 21.2963 66.5375 21.1416C66.5375 21.0296 66.5108 20.9096 66.4575 20.7816C66.4095 20.6483 66.3268 20.5283 66.2095 20.4216C66.0921 20.315 65.9375 20.227 65.7455 20.1576C65.5588 20.0829 65.3268 20.0456 65.0495 20.0456ZM67.0095 26.0776C66.7481 26.355 66.4921 26.595 66.2415 26.7976C65.9961 26.995 65.7455 27.1576 65.4895 27.2856C65.2388 27.4136 64.9775 27.507 64.7055 27.5656C64.4335 27.6296 64.1428 27.6616 63.8335 27.6616C63.3908 27.6616 62.9961 27.5896 62.6495 27.4456C62.3081 27.2963 62.0201 27.0883 61.7855 26.8216C61.5508 26.5496 61.3721 26.2216 61.2495 25.8376C61.1268 25.4483 61.0655 25.0136 61.0655 24.5336C61.0655 24.1336 61.1055 23.731 61.1855 23.3256C61.2655 22.9203 61.3828 22.531 61.5375 22.1576C61.6975 21.7843 61.8921 21.435 62.1215 21.1096C62.3561 20.7843 62.6228 20.5016 62.9215 20.2616C63.2201 20.0216 63.5508 19.8323 63.9135 19.6936C64.2761 19.555 64.6681 19.4856 65.0895 19.4856C65.4788 19.4856 65.8068 19.5416 66.0735 19.6536C66.3455 19.7603 66.5641 19.8963 66.7295 20.0616C66.9001 20.2216 67.0228 20.3976 67.0975 20.5896C67.1721 20.7763 67.2095 20.9523 67.2095 21.1176C67.2095 21.3363 67.1801 21.5443 67.1215 21.7416C67.0628 21.939 66.9588 22.1256 66.8095 22.3016C66.6601 22.4776 66.4575 22.643 66.2015 22.7976C65.9455 22.9523 65.6175 23.0963 65.2175 23.2296C64.8228 23.3576 64.3481 23.475 63.7935 23.5816C63.2388 23.6883 62.5881 23.7816 61.8415 23.8616C61.8308 23.9683 61.8201 24.0776 61.8095 24.1896C61.8041 24.3016 61.8015 24.411 61.8015 24.5176C61.8015 25.3123 61.9801 25.9336 62.3375 26.3816C62.7001 26.8296 63.2441 27.0536 63.9695 27.0536C64.2521 27.0536 64.5055 27.0243 64.7295 26.9656C64.9588 26.9016 65.1615 26.8216 65.3375 26.7256C65.5188 26.6296 65.6761 26.5283 65.8095 26.4216C65.9481 26.315 66.0708 26.2136 66.1775 26.1176C66.2841 26.0216 66.3748 25.9443 66.4495 25.8856C66.5295 25.8216 66.6015 25.7896 66.6655 25.7896C66.7295 25.7896 66.7855 25.8163 66.8335 25.8696L67.0095 26.0776ZM73.5415 20.5736C73.4988 20.6483 73.4401 20.6856 73.3655 20.6856C73.3121 20.6856 73.2455 20.6536 73.1655 20.5896C73.0908 20.5203 72.9868 20.4456 72.8535 20.3656C72.7255 20.2803 72.5628 20.2056 72.3655 20.1416C72.1681 20.0723 71.9228 20.0376 71.6295 20.0376C71.3575 20.0376 71.0988 20.083 70.8535 20.1736C70.6135 20.2643 70.4028 20.387 70.2215 20.5416C70.0455 20.691 69.9041 20.867 69.7975 21.0696C69.6961 21.267 69.6455 21.4776 69.6455 21.7016C69.6455 21.9203 69.6961 22.1043 69.7975 22.2536C69.8988 22.403 70.0321 22.5336 70.1975 22.6456C70.3681 22.7523 70.5575 22.8456 70.7655 22.9256C70.9788 23.0056 71.1975 23.0856 71.4215 23.1656C71.6455 23.2456 71.8615 23.3363 72.0695 23.4376C72.2828 23.5336 72.4721 23.651 72.6375 23.7896C72.8081 23.9283 72.9441 24.099 73.0455 24.3016C73.1468 24.499 73.1975 24.739 73.1975 25.0216C73.1975 25.363 73.1281 25.6936 72.9895 26.0136C72.8561 26.3336 72.6615 26.619 72.4055 26.8696C72.1548 27.115 71.8508 27.3123 71.4935 27.4616C71.1415 27.611 70.7468 27.6856 70.3095 27.6856C69.7975 27.6856 69.3655 27.5976 69.0135 27.4216C68.6668 27.2403 68.3681 27.0056 68.1175 26.7176L68.3095 26.4456C68.3681 26.3603 68.4401 26.3176 68.5255 26.3176C68.5788 26.3176 68.6455 26.3603 68.7255 26.4456C68.8055 26.531 68.9148 26.627 69.0535 26.7336C69.1921 26.835 69.3708 26.9283 69.5895 27.0136C69.8081 27.099 70.0828 27.1416 70.4135 27.1416C70.7335 27.1416 71.0215 27.091 71.2775 26.9896C71.5388 26.883 71.7601 26.739 71.9415 26.5576C72.1281 26.3763 72.2721 26.1683 72.3735 25.9336C72.4748 25.6936 72.5255 25.4403 72.5255 25.1736C72.5255 24.939 72.4748 24.7416 72.3735 24.5816C72.2721 24.4216 72.1361 24.2856 71.9655 24.1736C71.8001 24.0563 71.6108 23.9576 71.3975 23.8776C71.1895 23.7976 70.9735 23.7203 70.7495 23.6456C70.5255 23.5656 70.3068 23.4803 70.0935 23.3896C69.8855 23.2936 69.6961 23.179 69.5255 23.0456C69.3601 22.9123 69.2268 22.7496 69.1255 22.5576C69.0241 22.3656 68.9735 22.131 68.9735 21.8536C68.9735 21.5443 69.0401 21.2483 69.1735 20.9656C69.3068 20.6776 69.4935 20.4243 69.7335 20.2056C69.9735 19.9816 70.2588 19.8056 70.5895 19.6776C70.9255 19.5443 71.2908 19.4776 71.6855 19.4776C72.1335 19.4776 72.5201 19.547 72.8455 19.6856C73.1761 19.8243 73.4695 20.0323 73.7255 20.3096L73.5415 20.5736ZM81.6467 19.5976L80.6867 27.5576H80.3347C80.2334 27.5576 80.1587 27.531 80.1107 27.4776C80.068 27.4243 80.0467 27.3523 80.0467 27.2616L80.2867 24.9976C80.068 25.419 79.828 25.795 79.5667 26.1256C79.3054 26.4563 79.028 26.7363 78.7347 26.9656C78.4467 27.1896 78.1454 27.363 77.8307 27.4856C77.5214 27.603 77.212 27.6616 76.9027 27.6616C76.22 27.6616 75.732 27.4003 75.4387 26.8776C75.1454 26.3496 75.0574 25.611 75.1747 24.6616L75.7747 19.5976H76.5267L75.9267 24.6616C75.836 25.4243 75.8867 26.011 76.0787 26.4216C76.2707 26.827 76.6307 27.0296 77.1587 27.0296C77.452 27.0296 77.748 26.955 78.0467 26.8056C78.3507 26.6563 78.644 26.443 78.9267 26.1656C79.2094 25.883 79.476 25.547 79.7267 25.1576C79.9774 24.763 80.1987 24.3203 80.3907 23.8296L80.8947 19.5976H81.6467Z" fill="white"/>
</svg>
