<svg width="386" height="120" viewBox="0 0 386 120" fill="none" xmlns="http://www.w3.org/2000/svg">
<path d="M64.6009 36.8917C71.5387 2.01916 48.4696 2.01916 55.4074 36.8917C48.4696 2.01916 27.1558 10.8457 46.9103 40.4107C27.1558 10.8457 10.8452 27.1563 40.4102 46.9107C10.8452 27.1563 2.01867 48.4701 36.8913 55.4037C2.01867 48.4659 2.01867 71.535 36.8913 64.5972C2.01867 71.535 10.8494 92.8447 40.4102 73.0902C10.8494 92.8447 27.16 109.155 46.9103 79.5902C27.1558 109.151 48.4696 117.978 55.4032 83.1092C48.4654 117.982 71.5345 117.982 64.5967 83.1092C71.5345 117.982 92.8442 109.151 73.0897 79.5902C92.8442 109.151 109.155 92.8405 79.5897 73.0902C109.151 92.8447 117.977 71.5308 83.1087 64.5972C117.981 71.535 117.981 48.4659 83.1087 55.4037C117.981 48.4659 109.151 27.1563 79.5897 46.9107C109.151 27.1563 92.84 10.8457 73.0897 40.4107C92.8442 10.8499 71.5304 2.02333 64.5967 36.8917H64.6009Z" fill="#448585"/>
<path d="M71.14 79.42C73.62 79.42 75.52 78.82 76.84 77.62C78.16 76.4067 78.82 74.6933 78.82 72.48C78.82 71.7067 78.68 71.0133 78.4 70.4C78.1333 69.7733 77.7333 69.24 77.2 68.8C76.68 68.36 76.0333 68.02 75.26 67.78C74.5 67.54 73.6267 67.42 72.64 67.42H66.14L64.66 79.42H71.14ZM67.76 54.28L66.32 65.98H71.9C73.1933 65.98 74.3133 65.7867 75.26 65.4C76.2067 65.0133 76.9867 64.5067 77.6 63.88C78.2133 63.24 78.6667 62.5133 78.96 61.7C79.2533 60.8867 79.4 60.0467 79.4 59.18C79.4 57.5933 78.9 56.38 77.9 55.54C76.9133 54.7 75.3867 54.28 73.32 54.28H67.76ZM73.5 52.7C74.86 52.7 76.0333 52.84 77.02 53.12C78.0067 53.4 78.8267 53.8067 79.48 54.34C80.1333 54.86 80.6133 55.5 80.92 56.26C81.24 57.02 81.4 57.88 81.4 58.84C81.4 59.7467 81.2533 60.6133 80.96 61.44C80.68 62.2533 80.2667 63 79.72 63.68C79.1867 64.3467 78.5267 64.9267 77.74 65.42C76.9667 65.9133 76.0933 66.28 75.12 66.52C76.9733 66.8267 78.38 67.4867 79.34 68.5C80.3133 69.5 80.8 70.8067 80.8 72.42C80.8 73.7267 80.5733 74.9133 80.12 75.98C79.68 77.0333 79.0333 77.9333 78.18 78.68C77.34 79.4267 76.3133 80 75.1 80.4C73.8867 80.8 72.5133 81 70.98 81H62.48L65.96 52.7H73.5ZM84.8859 81L88.4059 51.9H90.2659L86.7259 81H84.8859ZM97.5653 61.1L95.1453 81H93.2853L95.7053 61.1H97.5653ZM99.0253 54.24C99.0253 54.48 98.972 54.7067 98.8653 54.92C98.772 55.12 98.6453 55.3 98.4853 55.46C98.3253 55.62 98.1386 55.7467 97.9253 55.84C97.7253 55.9333 97.5186 55.98 97.3053 55.98C97.0786 55.98 96.8653 55.9333 96.6653 55.84C96.4653 55.7467 96.292 55.62 96.1453 55.46C95.9986 55.3 95.8786 55.12 95.7853 54.92C95.692 54.7067 95.6453 54.48 95.6453 54.24C95.6453 54 95.692 53.7733 95.7853 53.56C95.8786 53.3467 95.9986 53.16 96.1453 53C96.3053 52.8267 96.4853 52.6933 96.6853 52.6C96.8853 52.5067 97.0986 52.46 97.3253 52.46C97.5386 52.46 97.7453 52.5067 97.9453 52.6C98.1586 52.6933 98.3453 52.82 98.5053 52.98C98.6653 53.14 98.792 53.3333 98.8853 53.56C98.9786 53.7733 99.0253 54 99.0253 54.24ZM113.862 63.54C113.755 63.7267 113.609 63.82 113.422 63.82C113.289 63.82 113.122 63.74 112.922 63.58C112.735 63.4067 112.475 63.22 112.142 63.02C111.822 62.8067 111.415 62.62 110.922 62.46C110.429 62.2867 109.815 62.2 109.082 62.2C108.402 62.2 107.755 62.3133 107.142 62.54C106.542 62.7667 106.015 63.0733 105.562 63.46C105.122 63.8333 104.769 64.2733 104.502 64.78C104.249 65.2733 104.122 65.8 104.122 66.36C104.122 66.9067 104.249 67.3667 104.502 67.74C104.755 68.1133 105.089 68.44 105.502 68.72C105.929 68.9867 106.402 69.22 106.922 69.42C107.455 69.62 108.002 69.82 108.562 70.02C109.122 70.22 109.662 70.4467 110.182 70.7C110.715 70.94 111.189 71.2333 111.602 71.58C112.029 71.9267 112.369 72.3533 112.622 72.86C112.875 73.3533 113.002 73.9533 113.002 74.66C113.002 75.5133 112.829 76.34 112.482 77.14C112.149 77.94 111.662 78.6533 111.022 79.28C110.395 79.8933 109.635 80.3867 108.742 80.76C107.862 81.1333 106.875 81.32 105.782 81.32C104.502 81.32 103.422 81.1 102.542 80.66C101.675 80.2067 100.929 79.62 100.302 78.9L100.782 78.22C100.929 78.0067 101.109 77.9 101.322 77.9C101.455 77.9 101.622 78.0067 101.822 78.22C102.022 78.4333 102.295 78.6733 102.642 78.94C102.989 79.1933 103.435 79.4267 103.982 79.64C104.529 79.8533 105.215 79.96 106.042 79.96C106.842 79.96 107.562 79.8333 108.202 79.58C108.855 79.3133 109.409 78.9533 109.862 78.5C110.329 78.0467 110.689 77.5267 110.942 76.94C111.195 76.34 111.322 75.7067 111.322 75.04C111.322 74.4533 111.195 73.96 110.942 73.56C110.689 73.16 110.349 72.82 109.922 72.54C109.509 72.2467 109.035 72 108.502 71.8C107.982 71.6 107.442 71.4067 106.882 71.22C106.322 71.02 105.775 70.8067 105.242 70.58C104.722 70.34 104.249 70.0533 103.822 69.72C103.409 69.3867 103.075 68.98 102.822 68.5C102.569 68.02 102.442 67.4333 102.442 66.74C102.442 65.9667 102.609 65.2267 102.942 64.52C103.275 63.8 103.742 63.1667 104.342 62.62C104.942 62.06 105.655 61.62 106.482 61.3C107.322 60.9667 108.235 60.8 109.222 60.8C110.342 60.8 111.309 60.9733 112.122 61.32C112.949 61.6667 113.682 62.1867 114.322 62.88L113.862 63.54ZM122.645 51.9L120.465 69.64H121.225C121.452 69.64 121.638 69.6133 121.785 69.56C121.945 69.4933 122.118 69.3667 122.305 69.18L130.545 61.6C130.692 61.44 130.845 61.32 131.005 61.24C131.165 61.1467 131.358 61.1 131.585 61.1H133.205L124.105 69.44C123.958 69.5867 123.825 69.7133 123.705 69.82C123.585 69.9267 123.452 70.02 123.305 70.1C123.478 70.2067 123.625 70.3333 123.745 70.48C123.878 70.6133 123.998 70.7733 124.105 70.96L131.385 81H129.805C129.618 81 129.458 80.9733 129.325 80.92C129.192 80.8533 129.072 80.7267 128.965 80.54L122.365 71.58C122.192 71.3267 122.018 71.16 121.845 71.08C121.672 71 121.398 70.96 121.025 70.96H120.305L119.085 81H117.225L120.785 51.9H122.645ZM140.929 79.76C142.089 79.76 143.143 79.46 144.089 78.86C145.049 78.2467 145.869 77.44 146.549 76.44C147.229 75.4267 147.749 74.2733 148.109 72.98C148.483 71.6733 148.669 70.3333 148.669 68.96C148.669 66.8267 148.196 65.1867 147.249 64.04C146.303 62.8933 144.989 62.32 143.309 62.32C142.149 62.32 141.089 62.62 140.129 63.22C139.183 63.82 138.369 64.62 137.689 65.62C137.023 66.6067 136.503 67.7467 136.129 69.04C135.756 70.3333 135.569 71.68 135.569 73.08C135.569 75.2 136.036 76.8467 136.969 78.02C137.916 79.18 139.236 79.76 140.929 79.76ZM140.769 81.26C139.703 81.26 138.729 81.0733 137.849 80.7C136.983 80.3267 136.236 79.7867 135.609 79.08C134.996 78.3733 134.516 77.52 134.169 76.52C133.836 75.5067 133.669 74.36 133.669 73.08C133.669 71.4667 133.909 69.92 134.389 68.44C134.869 66.96 135.543 65.6533 136.409 64.52C137.289 63.3867 138.329 62.4867 139.529 61.82C140.729 61.14 142.049 60.8 143.489 60.8C144.556 60.8 145.523 60.9867 146.389 61.36C147.269 61.7333 148.016 62.2733 148.629 62.98C149.256 63.6867 149.736 64.5467 150.069 65.56C150.416 66.56 150.589 67.6867 150.589 68.94C150.589 70.5533 150.343 72.1 149.849 73.58C149.369 75.06 148.696 76.3733 147.829 77.52C146.963 78.6533 145.929 79.56 144.729 80.24C143.529 80.92 142.209 81.26 140.769 81.26ZM167.715 67.5C168.249 66.4467 168.842 65.5067 169.495 64.68C170.162 63.84 170.862 63.1333 171.595 62.56C172.329 61.9867 173.082 61.5533 173.855 61.26C174.629 60.9533 175.409 60.8 176.195 60.8C177.049 60.8 177.775 60.9667 178.375 61.3C178.989 61.6333 179.475 62.12 179.835 62.76C180.209 63.4 180.449 64.1867 180.555 65.12C180.675 66.04 180.662 67.0933 180.515 68.28L179.015 81H177.135L178.635 68.28C178.862 66.3867 178.735 64.9333 178.255 63.92C177.775 62.9067 176.875 62.4 175.555 62.4C174.809 62.4 174.055 62.5933 173.295 62.98C172.549 63.3533 171.815 63.8933 171.095 64.6C170.389 65.2933 169.722 66.14 169.095 67.14C168.469 68.1267 167.915 69.24 167.435 70.48L166.215 81H164.335L166.715 61.04H167.575C168.042 61.04 168.275 61.28 168.275 61.76L167.715 67.5ZM199.16 62.66C198.76 62.5133 198.347 62.4133 197.92 62.36C197.494 62.2933 197.06 62.26 196.62 62.26C195.287 62.26 194.014 62.5867 192.8 63.24C191.587 63.8933 190.52 64.7667 189.6 65.86C188.68 66.9533 187.947 68.2067 187.4 69.62C186.854 71.0333 186.58 72.5 186.58 74.02C186.58 75.8067 186.88 77.2 187.48 78.2C188.094 79.1867 189.04 79.68 190.32 79.68C191.08 79.68 191.827 79.4667 192.56 79.04C193.294 78.6133 193.994 78.0133 194.66 77.24C195.34 76.4667 195.974 75.54 196.56 74.46C197.147 73.3667 197.674 72.16 198.14 70.84L199.16 62.66ZM197.86 74.08C197.354 75.1467 196.794 76.1267 196.18 77.02C195.58 77.9 194.934 78.6533 194.24 79.28C193.547 79.9067 192.82 80.3933 192.06 80.74C191.3 81.0867 190.514 81.26 189.7 81.26C188.874 81.26 188.14 81.1 187.5 80.78C186.874 80.4467 186.347 79.98 185.92 79.38C185.507 78.78 185.194 78.0533 184.98 77.2C184.767 76.3467 184.66 75.3867 184.66 74.32C184.66 73.16 184.807 72.0267 185.1 70.92C185.407 69.8 185.827 68.74 186.36 67.74C186.894 66.74 187.534 65.82 188.28 64.98C189.027 64.14 189.854 63.4133 190.76 62.8C191.667 62.1867 192.634 61.7067 193.66 61.36C194.687 61.0133 195.747 60.84 196.84 60.84C197.627 60.84 198.367 60.9133 199.06 61.06C199.767 61.1933 200.454 61.4333 201.12 61.78L198.78 81H197.86C197.594 81 197.414 80.9267 197.32 80.78C197.227 80.6333 197.18 80.4667 197.18 80.28L197.86 74.08ZM206.302 77.66C206.302 77.58 206.302 77.48 206.302 77.36C206.316 77.24 206.329 77.06 206.342 76.82C206.369 76.58 206.402 76.2733 206.442 75.9C206.482 75.5133 206.542 75.0267 206.622 74.44L207.982 63.14H205.362C205.229 63.14 205.122 63.1 205.042 63.02C204.962 62.94 204.936 62.8267 204.962 62.68L205.062 61.94L208.202 61.7L209.522 54.58C209.549 54.46 209.609 54.3533 209.702 54.26C209.796 54.1667 209.909 54.12 210.042 54.12H210.962L210.022 61.72H215.782L215.622 63.14H209.862L208.482 74.38C208.416 74.9267 208.356 75.3733 208.302 75.72C208.262 76.0667 208.229 76.3533 208.202 76.58C208.189 76.7933 208.176 76.9533 208.162 77.06C208.162 77.1667 208.162 77.2467 208.162 77.3C208.162 78.1667 208.362 78.7933 208.762 79.18C209.176 79.5667 209.702 79.76 210.342 79.76C210.782 79.76 211.169 79.6933 211.502 79.56C211.849 79.4133 212.149 79.26 212.402 79.1C212.656 78.9267 212.862 78.7733 213.022 78.64C213.182 78.4933 213.302 78.42 213.382 78.42C213.516 78.42 213.616 78.4867 213.682 78.62L214.042 79.46C213.509 80.02 212.862 80.4733 212.102 80.82C211.342 81.1533 210.582 81.32 209.822 81.32C208.729 81.32 207.869 81.02 207.242 80.42C206.629 79.82 206.316 78.9 206.302 77.66ZM235.375 61.1L232.975 81H232.095C231.842 81 231.655 80.9333 231.535 80.8C231.428 80.6667 231.375 80.4867 231.375 80.26L231.975 74.6C231.428 75.6533 230.828 76.5933 230.175 77.42C229.522 78.2467 228.828 78.9467 228.095 79.52C227.375 80.08 226.622 80.5133 225.835 80.82C225.062 81.1133 224.288 81.26 223.515 81.26C221.808 81.26 220.588 80.6067 219.855 79.3C219.122 77.98 218.902 76.1333 219.195 73.76L220.695 61.1H222.575L221.075 73.76C220.848 75.6667 220.975 77.1333 221.455 78.16C221.935 79.1733 222.835 79.68 224.155 79.68C224.888 79.68 225.628 79.4933 226.375 79.12C227.135 78.7467 227.868 78.2133 228.575 77.52C229.282 76.8133 229.948 75.9733 230.575 75C231.202 74.0133 231.755 72.9067 232.235 71.68L233.495 61.1H235.375ZM242.5 67.66C243.047 66.3533 243.64 65.22 244.28 64.26C244.933 63.3 245.62 62.54 246.34 61.98C247.073 61.42 247.833 61.0733 248.62 60.94C249.407 60.8067 250.207 60.9 251.02 61.22L250.68 63C249.773 62.6533 248.913 62.5733 248.1 62.76C247.287 62.9333 246.52 63.36 245.8 64.04C245.093 64.7067 244.433 65.6133 243.82 66.76C243.22 67.9067 242.68 69.2667 242.2 70.84L240.98 81H239.12L241.52 61.04H242.38C242.847 61.04 243.08 61.28 243.08 61.76L242.5 67.66ZM269.505 61.1L255.685 87.48C255.498 87.8533 255.225 88.04 254.865 88.04H253.525L257.725 80.24L252.385 61.1H253.865C254.052 61.1 254.192 61.1467 254.285 61.24C254.378 61.32 254.438 61.4333 254.465 61.58L258.665 77.06C258.718 77.26 258.752 77.46 258.765 77.66C258.792 77.86 258.818 78.06 258.845 78.26C258.925 78.06 259.012 77.86 259.105 77.66C259.198 77.46 259.292 77.26 259.385 77.06L267.405 61.52C267.472 61.3733 267.565 61.2667 267.685 61.2C267.805 61.1333 267.925 61.1 268.045 61.1H269.505Z" fill="white"/>
</svg>
