<svg width="22" height="23" viewBox="0 0 22 23" fill="none" xmlns="http://www.w3.org/2000/svg">
<path d="M16.352 10.1441C15.968 10.3788 15.5733 10.5815 15.168 10.7521C14.784 10.9015 14.3893 11.0188 13.984 11.1041C14.7733 11.2321 15.5627 11.5415 16.352 12.0321L21.248 14.9441L19.2 18.4321L14.304 15.5201C13.92 15.2855 13.5573 15.0508 13.216 14.8161C12.8747 14.5601 12.576 14.2828 12.32 13.9841C12.576 14.7308 12.704 15.5415 12.704 16.4161V22.1761H8.51199V16.4801C8.51199 16.0535 8.53332 15.6375 8.57599 15.2321C8.63999 14.8055 8.73599 14.4108 8.86399 14.0481C8.37332 14.6028 7.73332 15.0935 6.94399 15.5201L2.07999 18.3681L-1.3113e-05 14.8801L4.89599 12.0321C5.30132 11.7975 5.69599 11.6055 6.07999 11.4561C6.48532 11.2855 6.89065 11.1681 7.29599 11.1041C6.89065 11.0401 6.48532 10.9228 6.07999 10.7521C5.67465 10.5815 5.27999 10.3788 4.89599 10.1441L-1.3113e-05 7.23214L2.04799 3.77613L6.94399 6.68813C7.73332 7.1148 8.38399 7.61614 8.89599 8.19213C8.63999 7.4668 8.51199 6.6668 8.51199 5.79213V0.000133514H12.704V5.72813C12.704 6.1548 12.672 6.58147 12.608 7.00813C12.5653 7.41347 12.48 7.79747 12.352 8.16013C12.608 7.86147 12.896 7.5948 13.216 7.36013C13.5573 7.12547 13.92 6.90147 14.304 6.68813L19.168 3.84013L21.248 7.29613L16.352 10.1441Z" fill="#767676"/>
</svg>
