<svg width="107" height="34" viewBox="0 0 107 34" fill="none" xmlns="http://www.w3.org/2000/svg">
<path d="M25.1511 4.21707C23.213 4.21707 21.4838 5.12684 20.3536 6.54905L17 10.2457V10.2337L13.6464 6.53706C12.5162 5.11485 10.787 4.20508 8.8489 4.20508C5.44427 4.20508 2.6842 7.01147 2.6842 10.4735C2.6842 13.5155 5.22303 15.7893 7.06114 17.9736C8.89274 20.1498 10.724 22.3256 12.5552 24.5017L16.6664 29.3862C16.7777 29.5185 16.8887 29.6503 17 29.7826V29.7946C17.1113 29.6623 17.2223 29.5305 17.3336 29.3982C18.7038 27.7702 20.0741 26.1421 21.4447 24.5137C23.276 22.3375 25.1076 20.1618 26.9389 17.9856C28.777 15.8016 31.3158 13.5279 31.3158 10.4855C31.3158 7.02346 28.5557 4.21707 25.1511 4.21707Z" fill="#448585"/>
<path d="M20.9432 26.9256C21.9352 26.9256 22.6952 26.6856 23.2232 26.2056C23.7512 25.7203 24.0152 25.035 24.0152 24.1496C24.0152 23.8403 23.9592 23.563 23.8472 23.3176C23.7405 23.067 23.5805 22.8536 23.3672 22.6776C23.1592 22.5016 22.9005 22.3656 22.5912 22.2696C22.2872 22.1736 21.9378 22.1256 21.5432 22.1256H18.9432L18.3512 26.9256H20.9432ZM19.5912 16.8696L19.0152 21.5496H21.2472C21.7645 21.5496 22.2125 21.4723 22.5912 21.3176C22.9698 21.163 23.2818 20.9603 23.5272 20.7096C23.7725 20.4536 23.9538 20.163 24.0712 19.8376C24.1885 19.5123 24.2472 19.1763 24.2472 18.8296C24.2472 18.195 24.0472 17.7096 23.6472 17.3736C23.2525 17.0376 22.6418 16.8696 21.8152 16.8696H19.5912ZM21.8872 16.2376C22.4312 16.2376 22.9005 16.2936 23.2952 16.4056C23.6898 16.5176 24.0178 16.6803 24.2792 16.8936C24.5405 17.1016 24.7325 17.3576 24.8552 17.6616C24.9832 17.9656 25.0472 18.3096 25.0472 18.6936C25.0472 19.0563 24.9885 19.4029 24.8712 19.7336C24.7592 20.059 24.5938 20.3576 24.3752 20.6296C24.1618 20.8963 23.8978 21.1283 23.5832 21.3256C23.2738 21.523 22.9245 21.6696 22.5352 21.7656C23.2765 21.8883 23.8392 22.1523 24.2232 22.5576C24.6125 22.9576 24.8072 23.4803 24.8072 24.1256C24.8072 24.6483 24.7165 25.123 24.5352 25.5496C24.3592 25.971 24.1005 26.331 23.7592 26.6296C23.4232 26.9283 23.0125 27.1576 22.5272 27.3176C22.0418 27.4776 21.4925 27.5576 20.8792 27.5576H17.4792L18.8712 16.2376H21.8872ZM30.3524 20.0456C29.9258 20.0456 29.5391 20.1363 29.1924 20.3176C28.8511 20.4936 28.5471 20.7336 28.2804 21.0376C28.0191 21.3416 27.7978 21.6936 27.6164 22.0936C27.4404 22.4883 27.3098 22.9016 27.2244 23.3336C27.9018 23.259 28.4858 23.1736 28.9764 23.0776C29.4671 22.9763 29.8831 22.8723 30.2244 22.7656C30.5658 22.6536 30.8431 22.5336 31.0564 22.4056C31.2698 22.2776 31.4324 22.147 31.5444 22.0136C31.6618 21.875 31.7391 21.7336 31.7764 21.5896C31.8191 21.4456 31.8404 21.2963 31.8404 21.1416C31.8404 21.0296 31.8138 20.9096 31.7604 20.7816C31.7124 20.6483 31.6298 20.5283 31.5124 20.4216C31.3951 20.315 31.2404 20.227 31.0484 20.1576C30.8618 20.0829 30.6298 20.0456 30.3524 20.0456ZM32.3124 26.0776C32.0511 26.355 31.7951 26.595 31.5444 26.7976C31.2991 26.995 31.0484 27.1576 30.7924 27.2856C30.5418 27.4136 30.2804 27.507 30.0084 27.5656C29.7364 27.6296 29.4458 27.6616 29.1364 27.6616C28.6938 27.6616 28.2991 27.5896 27.9524 27.4456C27.6111 27.2963 27.3231 27.0883 27.0884 26.8216C26.8538 26.5496 26.6751 26.2216 26.5524 25.8376C26.4298 25.4483 26.3684 25.0136 26.3684 24.5336C26.3684 24.1336 26.4084 23.731 26.4884 23.3256C26.5684 22.9203 26.6858 22.531 26.8404 22.1576C27.0004 21.7843 27.1951 21.435 27.4244 21.1096C27.6591 20.7843 27.9258 20.5016 28.2244 20.2616C28.5231 20.0216 28.8538 19.8323 29.2164 19.6936C29.5791 19.555 29.9711 19.4856 30.3924 19.4856C30.7818 19.4856 31.1098 19.5416 31.3764 19.6536C31.6484 19.7603 31.8671 19.8963 32.0324 20.0616C32.2031 20.2216 32.3258 20.3976 32.4004 20.5896C32.4751 20.7763 32.5124 20.9523 32.5124 21.1176C32.5124 21.3363 32.4831 21.5443 32.4244 21.7416C32.3658 21.939 32.2618 22.1256 32.1124 22.3016C31.9631 22.4776 31.7604 22.643 31.5044 22.7976C31.2484 22.9523 30.9204 23.0963 30.5204 23.2296C30.1258 23.3576 29.6511 23.475 29.0964 23.5816C28.5418 23.6883 27.8911 23.7816 27.1444 23.8616C27.1338 23.9683 27.1231 24.0776 27.1124 24.1896C27.1071 24.3016 27.1044 24.411 27.1044 24.5176C27.1044 25.3123 27.2831 25.9336 27.6404 26.3816C28.0031 26.8296 28.5471 27.0536 29.2724 27.0536C29.5551 27.0536 29.8084 27.0243 30.0324 26.9656C30.2618 26.9016 30.4644 26.8216 30.6404 26.7256C30.8218 26.6296 30.9791 26.5283 31.1124 26.4216C31.2511 26.315 31.3738 26.2136 31.4804 26.1176C31.5871 26.0216 31.6778 25.9443 31.7524 25.8856C31.8324 25.8216 31.9044 25.7896 31.9684 25.7896C32.0324 25.7896 32.0884 25.8163 32.1364 25.8696L32.3124 26.0776ZM39.7324 19.5976L39.6924 19.9176C39.6871 20.019 39.6364 20.1203 39.5404 20.2216L34.1724 26.9576H38.6444L38.5804 27.5576H33.1884L33.2204 27.2536C33.2204 27.211 33.2338 27.163 33.2604 27.1096C33.2871 27.0563 33.3218 27.0056 33.3644 26.9576L38.7484 20.1976H34.3244L34.4044 19.5976H39.7324ZM41.4618 25.9176C41.6965 26.339 41.9845 26.635 42.3258 26.8056C42.6671 26.9763 43.0218 27.0616 43.3898 27.0616C43.7258 27.0616 44.0378 26.995 44.3258 26.8616C44.6191 26.723 44.8831 26.5363 45.1178 26.3016C45.3578 26.067 45.5685 25.795 45.7498 25.4856C45.9365 25.171 46.0911 24.8403 46.2138 24.4936C46.3418 24.147 46.4378 23.7923 46.5018 23.4296C46.5711 23.0616 46.6058 22.7043 46.6058 22.3576C46.6058 21.643 46.4698 21.0883 46.1978 20.6936C45.9258 20.2936 45.5285 20.0936 45.0058 20.0936C44.7018 20.0936 44.3951 20.179 44.0858 20.3496C43.7818 20.5203 43.4885 20.7603 43.2058 21.0696C42.9231 21.379 42.6565 21.7523 42.4058 22.1896C42.1551 22.6216 41.9338 23.1043 41.7418 23.6376L41.4618 25.9176ZM41.8698 22.3656C42.0778 21.9336 42.3098 21.5416 42.5658 21.1896C42.8271 20.8323 43.1018 20.5283 43.3898 20.2776C43.6778 20.0216 43.9791 19.8243 44.2938 19.6856C44.6085 19.547 44.9285 19.4776 45.2538 19.4776C45.6005 19.4776 45.9045 19.5443 46.1658 19.6776C46.4271 19.811 46.6458 20.0003 46.8218 20.2456C46.9978 20.4856 47.1311 20.779 47.2218 21.1256C47.3125 21.4723 47.3578 21.859 47.3578 22.2856C47.3578 22.6963 47.3151 23.115 47.2298 23.5416C47.1445 23.963 47.0218 24.3736 46.8618 24.7736C46.7071 25.1683 46.5151 25.5416 46.2858 25.8936C46.0618 26.2456 45.8058 26.5523 45.5178 26.8136C45.2298 27.075 44.9125 27.283 44.5658 27.4376C44.2245 27.587 43.8618 27.6616 43.4778 27.6616C43.0458 27.6616 42.6458 27.5656 42.2778 27.3736C41.9151 27.1816 41.6191 26.899 41.3898 26.5256L40.9178 30.3736H40.1818L41.4938 19.5736H41.8378C42.0245 19.5736 42.1178 19.6696 42.1178 19.8616L41.8698 22.3656ZM50.5758 19.5976L49.6078 27.5576H48.8638L49.8318 19.5976H50.5758ZM51.1598 16.8536C51.1598 16.9496 51.1385 17.0403 51.0958 17.1256C51.0585 17.2056 51.0078 17.2776 50.9438 17.3416C50.8798 17.4056 50.8051 17.4563 50.7198 17.4936C50.6398 17.531 50.5571 17.5496 50.4718 17.5496C50.3811 17.5496 50.2958 17.531 50.2158 17.4936C50.1358 17.4563 50.0665 17.4056 50.0078 17.3416C49.9491 17.2776 49.9011 17.2056 49.8638 17.1256C49.8265 17.0403 49.8078 16.9496 49.8078 16.8536C49.8078 16.7576 49.8265 16.6669 49.8638 16.5816C49.9011 16.4963 49.9491 16.4216 50.0078 16.3576C50.0718 16.2883 50.1438 16.2349 50.2238 16.1976C50.3038 16.1603 50.3891 16.1416 50.4798 16.1416C50.5651 16.1416 50.6478 16.1603 50.7278 16.1976C50.8131 16.2349 50.8878 16.2856 50.9518 16.3496C51.0158 16.4136 51.0665 16.4909 51.1038 16.5816C51.1411 16.6669 51.1598 16.7576 51.1598 16.8536ZM56.1024 20.0456C55.6758 20.0456 55.2891 20.1363 54.9424 20.3176C54.6011 20.4936 54.2971 20.7336 54.0304 21.0376C53.7691 21.3416 53.5478 21.6936 53.3664 22.0936C53.1904 22.4883 53.0598 22.9016 52.9744 23.3336C53.6518 23.259 54.2358 23.1736 54.7264 23.0776C55.2171 22.9763 55.6331 22.8723 55.9744 22.7656C56.3158 22.6536 56.5931 22.5336 56.8064 22.4056C57.0198 22.2776 57.1824 22.147 57.2944 22.0136C57.4118 21.875 57.4891 21.7336 57.5264 21.5896C57.5691 21.4456 57.5904 21.2963 57.5904 21.1416C57.5904 21.0296 57.5638 20.9096 57.5104 20.7816C57.4624 20.6483 57.3798 20.5283 57.2624 20.4216C57.1451 20.315 56.9904 20.227 56.7984 20.1576C56.6118 20.0829 56.3798 20.0456 56.1024 20.0456ZM58.0624 26.0776C57.8011 26.355 57.5451 26.595 57.2944 26.7976C57.0491 26.995 56.7984 27.1576 56.5424 27.2856C56.2918 27.4136 56.0304 27.507 55.7584 27.5656C55.4864 27.6296 55.1958 27.6616 54.8864 27.6616C54.4438 27.6616 54.0491 27.5896 53.7024 27.4456C53.3611 27.2963 53.0731 27.0883 52.8384 26.8216C52.6038 26.5496 52.4251 26.2216 52.3024 25.8376C52.1798 25.4483 52.1184 25.0136 52.1184 24.5336C52.1184 24.1336 52.1584 23.731 52.2384 23.3256C52.3184 22.9203 52.4358 22.531 52.5904 22.1576C52.7504 21.7843 52.9451 21.435 53.1744 21.1096C53.4091 20.7843 53.6758 20.5016 53.9744 20.2616C54.2731 20.0216 54.6038 19.8323 54.9664 19.6936C55.3291 19.555 55.7211 19.4856 56.1424 19.4856C56.5318 19.4856 56.8598 19.5416 57.1264 19.6536C57.3984 19.7603 57.6171 19.8963 57.7824 20.0616C57.9531 20.2216 58.0758 20.3976 58.1504 20.5896C58.2251 20.7763 58.2624 20.9523 58.2624 21.1176C58.2624 21.3363 58.2331 21.5443 58.1744 21.7416C58.1158 21.939 58.0118 22.1256 57.8624 22.3016C57.7131 22.4776 57.5104 22.643 57.2544 22.7976C56.9984 22.9523 56.6704 23.0963 56.2704 23.2296C55.8758 23.3576 55.4011 23.475 54.8464 23.5816C54.2918 23.6883 53.6411 23.7816 52.8944 23.8616C52.8838 23.9683 52.8731 24.0776 52.8624 24.1896C52.8571 24.3016 52.8544 24.411 52.8544 24.5176C52.8544 25.3123 53.0331 25.9336 53.3904 26.3816C53.7531 26.8296 54.2971 27.0536 55.0224 27.0536C55.3051 27.0536 55.5584 27.0243 55.7824 26.9656C56.0118 26.9016 56.2144 26.8216 56.3904 26.7256C56.5718 26.6296 56.7291 26.5283 56.8624 26.4216C57.0011 26.315 57.1238 26.2136 57.2304 26.1176C57.3371 26.0216 57.4278 25.9443 57.5024 25.8856C57.5824 25.8216 57.6544 25.7896 57.7184 25.7896C57.7824 25.7896 57.8384 25.8163 57.8864 25.8696L58.0624 26.0776ZM65.3639 26.1016C65.0813 26.4163 64.8119 26.675 64.5559 26.8776C64.3053 27.0803 64.0573 27.2403 63.8119 27.3576C63.5719 27.475 63.3266 27.555 63.0759 27.5976C62.8253 27.6403 62.5586 27.6616 62.2759 27.6616C61.8173 27.6616 61.4173 27.5843 61.0759 27.4296C60.7399 27.2696 60.4599 27.0483 60.2359 26.7656C60.0119 26.483 59.8439 26.147 59.7319 25.7576C59.6199 25.3683 59.5639 24.9443 59.5639 24.4856C59.5639 24.0643 59.6066 23.6483 59.6919 23.2376C59.7826 22.8216 59.9106 22.427 60.0759 22.0536C60.2413 21.6803 60.4413 21.3363 60.6759 21.0216C60.9106 20.707 61.1746 20.435 61.4679 20.2056C61.7613 19.9763 62.0786 19.7976 62.4199 19.6696C62.7666 19.5363 63.1346 19.4696 63.5239 19.4696C63.7853 19.4696 64.0199 19.4963 64.2279 19.5496C64.4413 19.5976 64.6359 19.6696 64.8119 19.7656C64.9879 19.8563 65.1479 19.9683 65.2919 20.1016C65.4359 20.235 65.5693 20.3843 65.6919 20.5496L65.4679 20.8136C65.4199 20.8723 65.3639 20.9016 65.2999 20.9016C65.2466 20.9016 65.1799 20.859 65.0999 20.7736C65.0253 20.6883 64.9213 20.5976 64.7879 20.5016C64.6599 20.4003 64.4919 20.307 64.2839 20.2216C64.0759 20.1363 63.8146 20.0936 63.4999 20.0936C63.0519 20.0936 62.6333 20.2136 62.2439 20.4536C61.8599 20.6936 61.5239 21.0163 61.2359 21.4216C60.9533 21.827 60.7293 22.2963 60.5639 22.8296C60.4039 23.3576 60.3239 23.9096 60.3239 24.4856C60.3239 24.8536 60.3639 25.195 60.4439 25.5096C60.5293 25.8243 60.6573 26.0963 60.8279 26.3256C61.0039 26.555 61.2226 26.7336 61.4839 26.8616C61.7453 26.9896 62.0546 27.0536 62.4119 27.0536C62.6946 27.0536 62.9479 27.0243 63.1719 26.9656C63.3959 26.9016 63.5933 26.8243 63.7639 26.7336C63.9399 26.643 64.0919 26.5443 64.2199 26.4376C64.3533 26.3256 64.4706 26.2243 64.5719 26.1336C64.6733 26.043 64.7586 25.9683 64.8279 25.9096C64.9026 25.8456 64.9693 25.8136 65.0279 25.8136C65.0866 25.8136 65.1426 25.8403 65.1959 25.8936L65.3639 26.1016ZM72.7012 19.5976L72.6612 19.9176C72.6558 20.019 72.6052 20.1203 72.5092 20.2216L67.1412 26.9576H71.6132L71.5492 27.5576H66.1572L66.1892 27.2536C66.1892 27.211 66.2025 27.163 66.2292 27.1096C66.2558 27.0563 66.2905 27.0056 66.3332 26.9576L71.7172 20.1976H67.2932L67.3732 19.5976H72.7012ZM74.8546 22.1576C75.0679 21.7363 75.3052 21.3603 75.5666 21.0296C75.8332 20.6936 76.1132 20.411 76.4066 20.1816C76.6999 19.9523 77.0012 19.779 77.3106 19.6616C77.6199 19.539 77.9319 19.4776 78.2466 19.4776C78.5879 19.4776 78.8786 19.5443 79.1186 19.6776C79.3639 19.811 79.5586 20.0056 79.7026 20.2616C79.8519 20.5176 79.9479 20.8323 79.9906 21.2056C80.0386 21.5736 80.0332 21.995 79.9746 22.4696L79.3746 27.5576H78.6226L79.2226 22.4696C79.3132 21.7123 79.2626 21.131 79.0706 20.7256C78.8786 20.3203 78.5186 20.1176 77.9906 20.1176C77.6919 20.1176 77.3906 20.195 77.0866 20.3496C76.7879 20.499 76.4946 20.715 76.2066 20.9976C75.9239 21.275 75.6572 21.6136 75.4066 22.0136C75.1559 22.4083 74.9346 22.8536 74.7426 23.3496L74.2546 27.5576H73.5026L74.4546 19.5736H74.7986C74.9852 19.5736 75.0786 19.6696 75.0786 19.8616L74.8546 22.1576ZM83.5446 19.5976L82.5766 27.5576H81.8326L82.8006 19.5976H83.5446ZM84.1286 16.8536C84.1286 16.9496 84.1072 17.0403 84.0646 17.1256C84.0272 17.2056 83.9766 17.2776 83.9126 17.3416C83.8486 17.4056 83.7739 17.4563 83.6886 17.4936C83.6086 17.531 83.5259 17.5496 83.4406 17.5496C83.3499 17.5496 83.2646 17.531 83.1846 17.4936C83.1046 17.4563 83.0352 17.4056 82.9766 17.3416C82.9179 17.2776 82.8699 17.2056 82.8326 17.1256C82.7952 17.0403 82.7766 16.9496 82.7766 16.8536C82.7766 16.7576 82.7952 16.6669 82.8326 16.5816C82.8699 16.4963 82.9179 16.4216 82.9766 16.3576C83.0406 16.2883 83.1126 16.2349 83.1926 16.1976C83.2726 16.1603 83.3579 16.1416 83.4486 16.1416C83.5339 16.1416 83.6166 16.1603 83.6966 16.1976C83.7819 16.2349 83.8566 16.2856 83.9206 16.3496C83.9846 16.4136 84.0352 16.4909 84.0726 16.5816C84.1099 16.6669 84.1286 16.7576 84.1286 16.8536ZM89.0712 20.0456C88.6445 20.0456 88.2578 20.1363 87.9112 20.3176C87.5698 20.4936 87.2658 20.7336 86.9992 21.0376C86.7378 21.3416 86.5165 21.6936 86.3352 22.0936C86.1592 22.4883 86.0285 22.9016 85.9432 23.3336C86.6205 23.259 87.2045 23.1736 87.6952 23.0776C88.1858 22.9763 88.6018 22.8723 88.9432 22.7656C89.2845 22.6536 89.5618 22.5336 89.7752 22.4056C89.9885 22.2776 90.1512 22.147 90.2632 22.0136C90.3805 21.875 90.4578 21.7336 90.4952 21.5896C90.5378 21.4456 90.5592 21.2963 90.5592 21.1416C90.5592 21.0296 90.5325 20.9096 90.4792 20.7816C90.4312 20.6483 90.3485 20.5283 90.2312 20.4216C90.1138 20.315 89.9592 20.227 89.7672 20.1576C89.5805 20.0829 89.3485 20.0456 89.0712 20.0456ZM91.0312 26.0776C90.7698 26.355 90.5138 26.595 90.2632 26.7976C90.0178 26.995 89.7672 27.1576 89.5112 27.2856C89.2605 27.4136 88.9992 27.507 88.7272 27.5656C88.4552 27.6296 88.1645 27.6616 87.8552 27.6616C87.4125 27.6616 87.0178 27.5896 86.6712 27.4456C86.3298 27.2963 86.0418 27.0883 85.8072 26.8216C85.5725 26.5496 85.3938 26.2216 85.2712 25.8376C85.1485 25.4483 85.0872 25.0136 85.0872 24.5336C85.0872 24.1336 85.1272 23.731 85.2072 23.3256C85.2872 22.9203 85.4045 22.531 85.5592 22.1576C85.7192 21.7843 85.9138 21.435 86.1432 21.1096C86.3778 20.7843 86.6445 20.5016 86.9432 20.2616C87.2418 20.0216 87.5725 19.8323 87.9352 19.6936C88.2978 19.555 88.6898 19.4856 89.1112 19.4856C89.5005 19.4856 89.8285 19.5416 90.0952 19.6536C90.3672 19.7603 90.5858 19.8963 90.7512 20.0616C90.9218 20.2216 91.0445 20.3976 91.1192 20.5896C91.1938 20.7763 91.2312 20.9523 91.2312 21.1176C91.2312 21.3363 91.2018 21.5443 91.1432 21.7416C91.0845 21.939 90.9805 22.1256 90.8312 22.3016C90.6818 22.4776 90.4792 22.643 90.2232 22.7976C89.9672 22.9523 89.6392 23.0963 89.2392 23.2296C88.8445 23.3576 88.3698 23.475 87.8152 23.5816C87.2605 23.6883 86.6098 23.7816 85.8632 23.8616C85.8525 23.9683 85.8418 24.0776 85.8312 24.1896C85.8258 24.3016 85.8232 24.411 85.8232 24.5176C85.8232 25.3123 86.0018 25.9336 86.3592 26.3816C86.7218 26.8296 87.2658 27.0536 87.9912 27.0536C88.2738 27.0536 88.5272 27.0243 88.7512 26.9656C88.9805 26.9016 89.1832 26.8216 89.3592 26.7256C89.5405 26.6296 89.6978 26.5283 89.8312 26.4216C89.9698 26.315 90.0925 26.2136 90.1992 26.1176C90.3058 26.0216 90.3965 25.9443 90.4712 25.8856C90.5512 25.8216 90.6232 25.7896 90.6872 25.7896C90.7512 25.7896 90.8072 25.8163 90.8552 25.8696L91.0312 26.0776Z" fill="white"/>
</svg>
