<svg width="106" height="34" viewBox="0 0 106 34" fill="none" xmlns="http://www.w3.org/2000/svg">
<path d="M18.3036 10.4524C20.2693 0.571851 13.7331 0.571851 15.6988 10.4524C13.7331 0.571851 7.69416 3.07271 13.2913 11.4495C7.69416 3.07271 3.07283 7.69403 11.4496 13.2911C3.07283 7.69403 0.571973 13.7329 10.4525 15.6975C0.571973 13.7318 0.571973 20.268 10.4525 18.3023C0.571973 20.268 3.07401 26.3057 11.4496 20.7086C3.07401 26.3057 7.69534 30.9271 13.2913 22.5503C7.69416 30.9259 13.7331 33.4267 15.6976 23.5474C13.7319 33.4279 20.2681 33.4279 18.3024 23.5474C20.2681 33.4279 26.3059 30.9259 20.7088 22.5503C26.3059 30.9259 30.9272 26.3046 22.5504 20.7086C30.926 26.3057 33.4269 20.2668 23.5475 18.3023C33.428 20.268 33.428 13.7318 23.5475 15.6975C33.428 13.7318 30.926 7.69403 22.5504 13.2911C30.926 7.69403 26.3047 3.07271 20.7088 11.4495C26.3059 3.07389 20.267 0.573032 18.3024 10.4524H18.3036Z" fill="#448585"/>
<path d="M20.93 26.9256C21.922 26.9256 22.682 26.6856 23.21 26.2056C23.738 25.7203 24.002 25.035 24.002 24.1496C24.002 23.8403 23.946 23.563 23.834 23.3176C23.7273 23.067 23.5673 22.8536 23.354 22.6776C23.146 22.5016 22.8873 22.3656 22.578 22.2696C22.274 22.1736 21.9247 22.1256 21.53 22.1256H18.93L18.338 26.9256H20.93ZM19.578 16.8696L19.002 21.5496H21.234C21.7513 21.5496 22.1993 21.4723 22.578 21.3176C22.9567 21.163 23.2687 20.9603 23.514 20.7096C23.7593 20.4536 23.9407 20.163 24.058 19.8376C24.1753 19.5123 24.234 19.1763 24.234 18.8296C24.234 18.195 24.034 17.7096 23.634 17.3736C23.2393 17.0376 22.6287 16.8696 21.802 16.8696H19.578ZM21.874 16.2376C22.418 16.2376 22.8873 16.2936 23.282 16.4056C23.6767 16.5176 24.0047 16.6803 24.266 16.8936C24.5273 17.1016 24.7193 17.3576 24.842 17.6616C24.97 17.9656 25.034 18.3096 25.034 18.6936C25.034 19.0563 24.9753 19.4029 24.858 19.7336C24.746 20.059 24.5807 20.3576 24.362 20.6296C24.1487 20.8963 23.8847 21.1283 23.57 21.3256C23.2607 21.523 22.9113 21.6696 22.522 21.7656C23.2633 21.8883 23.826 22.1523 24.21 22.5576C24.5993 22.9576 24.794 23.4803 24.794 24.1256C24.794 24.6483 24.7033 25.123 24.522 25.5496C24.346 25.971 24.0873 26.331 23.746 26.6296C23.41 26.9283 22.9993 27.1576 22.514 27.3176C22.0287 27.4776 21.4793 27.5576 20.866 27.5576H17.466L18.858 16.2376H21.874ZM26.4284 27.5576L27.8364 15.9176H28.5804L27.1644 27.5576H26.4284ZM31.5001 19.5976L30.5321 27.5576H29.7881L30.7561 19.5976H31.5001ZM32.0841 16.8536C32.0841 16.9496 32.0628 17.0403 32.0201 17.1256C31.9828 17.2056 31.9321 17.2776 31.8681 17.3416C31.8041 17.4056 31.7295 17.4563 31.6441 17.4936C31.5641 17.531 31.4815 17.5496 31.3961 17.5496C31.3055 17.5496 31.2201 17.531 31.1401 17.4936C31.0601 17.4563 30.9908 17.4056 30.9321 17.3416C30.8735 17.2776 30.8255 17.2056 30.7881 17.1256C30.7508 17.0403 30.7321 16.9496 30.7321 16.8536C30.7321 16.7576 30.7508 16.6669 30.7881 16.5816C30.8255 16.4963 30.8735 16.4216 30.9321 16.3576C30.9961 16.2883 31.0681 16.2349 31.1481 16.1976C31.2281 16.1603 31.3135 16.1416 31.4041 16.1416C31.4895 16.1416 31.5721 16.1603 31.6521 16.1976C31.7375 16.2349 31.8121 16.2856 31.8761 16.3496C31.9401 16.4136 31.9908 16.4909 32.0281 16.5816C32.0655 16.6669 32.0841 16.7576 32.0841 16.8536ZM38.0187 20.5736C37.9761 20.6483 37.9174 20.6856 37.8427 20.6856C37.7894 20.6856 37.7227 20.6536 37.6427 20.5896C37.5681 20.5203 37.4641 20.4456 37.3307 20.3656C37.2027 20.2803 37.0401 20.2056 36.8427 20.1416C36.6454 20.0723 36.4001 20.0376 36.1067 20.0376C35.8347 20.0376 35.5761 20.083 35.3307 20.1736C35.0907 20.2643 34.8801 20.387 34.6987 20.5416C34.5227 20.691 34.3814 20.867 34.2747 21.0696C34.1734 21.267 34.1227 21.4776 34.1227 21.7016C34.1227 21.9203 34.1734 22.1043 34.2747 22.2536C34.3761 22.403 34.5094 22.5336 34.6747 22.6456C34.8454 22.7523 35.0347 22.8456 35.2427 22.9256C35.4561 23.0056 35.6747 23.0856 35.8987 23.1656C36.1227 23.2456 36.3387 23.3363 36.5467 23.4376C36.7601 23.5336 36.9494 23.651 37.1147 23.7896C37.2854 23.9283 37.4214 24.099 37.5227 24.3016C37.6241 24.499 37.6747 24.739 37.6747 25.0216C37.6747 25.363 37.6054 25.6936 37.4667 26.0136C37.3334 26.3336 37.1387 26.619 36.8827 26.8696C36.6321 27.115 36.3281 27.3123 35.9707 27.4616C35.6187 27.611 35.2241 27.6856 34.7867 27.6856C34.2747 27.6856 33.8427 27.5976 33.4907 27.4216C33.1441 27.2403 32.8454 27.0056 32.5947 26.7176L32.7867 26.4456C32.8454 26.3603 32.9174 26.3176 33.0027 26.3176C33.0561 26.3176 33.1227 26.3603 33.2027 26.4456C33.2827 26.531 33.3921 26.627 33.5307 26.7336C33.6694 26.835 33.8481 26.9283 34.0667 27.0136C34.2854 27.099 34.5601 27.1416 34.8907 27.1416C35.2107 27.1416 35.4987 27.091 35.7547 26.9896C36.0161 26.883 36.2374 26.739 36.4187 26.5576C36.6054 26.3763 36.7494 26.1683 36.8507 25.9336C36.9521 25.6936 37.0027 25.4403 37.0027 25.1736C37.0027 24.939 36.9521 24.7416 36.8507 24.5816C36.7494 24.4216 36.6134 24.2856 36.4427 24.1736C36.2774 24.0563 36.0881 23.9576 35.8747 23.8776C35.6667 23.7976 35.4507 23.7203 35.2267 23.6456C35.0027 23.5656 34.7841 23.4803 34.5707 23.3896C34.3627 23.2936 34.1734 23.179 34.0027 23.0456C33.8374 22.9123 33.7041 22.7496 33.6027 22.5576C33.5014 22.3656 33.4507 22.131 33.4507 21.8536C33.4507 21.5443 33.5174 21.2483 33.6507 20.9656C33.7841 20.6776 33.9707 20.4243 34.2107 20.2056C34.4507 19.9816 34.7361 19.8056 35.0667 19.6776C35.4027 19.5443 35.7681 19.4776 36.1627 19.4776C36.6107 19.4776 36.9974 19.547 37.3227 19.6856C37.6534 19.8243 37.9467 20.0323 38.2027 20.3096L38.0187 20.5736ZM41.532 15.9176L40.66 23.0136H40.964C41.0547 23.0136 41.1293 23.003 41.188 22.9816C41.252 22.955 41.3213 22.9043 41.396 22.8296L44.692 19.7976C44.7507 19.7336 44.812 19.6856 44.876 19.6536C44.94 19.6163 45.0173 19.5976 45.108 19.5976H45.756L42.116 22.9336C42.0573 22.9923 42.004 23.043 41.956 23.0856C41.908 23.1283 41.8547 23.1656 41.796 23.1976C41.8653 23.2403 41.924 23.291 41.972 23.3496C42.0253 23.403 42.0733 23.467 42.116 23.5416L45.028 27.5576H44.396C44.3213 27.5576 44.2573 27.547 44.204 27.5256C44.1507 27.499 44.1027 27.4483 44.06 27.3736L41.42 23.7896C41.3507 23.6883 41.2813 23.6216 41.212 23.5896C41.1427 23.5576 41.0333 23.5416 40.884 23.5416H40.596L40.108 27.5576H39.364L40.788 15.9176H41.532ZM48.8457 27.0616C49.3097 27.0616 49.7311 26.9416 50.1097 26.7016C50.4937 26.4563 50.8217 26.1336 51.0937 25.7336C51.3657 25.3283 51.5737 24.867 51.7177 24.3496C51.8671 23.827 51.9417 23.291 51.9417 22.7416C51.9417 21.8883 51.7524 21.2323 51.3737 20.7736C50.9951 20.315 50.4697 20.0856 49.7977 20.0856C49.3337 20.0856 48.9097 20.2056 48.5257 20.4456C48.1471 20.6856 47.8217 21.0056 47.5497 21.4056C47.2831 21.8003 47.0751 22.2563 46.9257 22.7736C46.7764 23.291 46.7017 23.8296 46.7017 24.3896C46.7017 25.2376 46.8884 25.8963 47.2617 26.3656C47.6404 26.8296 48.1684 27.0616 48.8457 27.0616ZM48.7817 27.6616C48.3551 27.6616 47.9657 27.587 47.6137 27.4376C47.2671 27.2883 46.9684 27.0723 46.7177 26.7896C46.4724 26.507 46.2804 26.1656 46.1417 25.7656C46.0084 25.3603 45.9417 24.9016 45.9417 24.3896C45.9417 23.7443 46.0377 23.1256 46.2297 22.5336C46.4217 21.9416 46.6911 21.419 47.0377 20.9656C47.3897 20.5123 47.8057 20.1523 48.2857 19.8856C48.7657 19.6136 49.2937 19.4776 49.8697 19.4776C50.2964 19.4776 50.6831 19.5523 51.0297 19.7016C51.3817 19.851 51.6804 20.067 51.9257 20.3496C52.1764 20.6323 52.3684 20.9763 52.5017 21.3816C52.6404 21.7816 52.7097 22.2323 52.7097 22.7336C52.7097 23.379 52.6111 23.9976 52.4137 24.5896C52.2217 25.1816 51.9524 25.707 51.6057 26.1656C51.2591 26.619 50.8457 26.9816 50.3657 27.2536C49.8857 27.5256 49.3577 27.6616 48.7817 27.6616ZM59.5601 22.1576C59.7735 21.7363 60.0108 21.3603 60.2721 21.0296C60.5388 20.6936 60.8188 20.411 61.1121 20.1816C61.4055 19.9523 61.7068 19.779 62.0161 19.6616C62.3255 19.539 62.6375 19.4776 62.9521 19.4776C63.2935 19.4776 63.5841 19.5443 63.8241 19.6776C64.0695 19.811 64.2641 20.0056 64.4081 20.2616C64.5575 20.5176 64.6535 20.8323 64.6961 21.2056C64.7441 21.5736 64.7388 21.995 64.6801 22.4696L64.0801 27.5576H63.3281L63.9281 22.4696C64.0188 21.7123 63.9681 21.131 63.7761 20.7256C63.5841 20.3203 63.2241 20.1176 62.6961 20.1176C62.3975 20.1176 62.0961 20.195 61.7921 20.3496C61.4935 20.499 61.2001 20.715 60.9121 20.9976C60.6295 21.275 60.3628 21.6136 60.1121 22.0136C59.8615 22.4083 59.6401 22.8536 59.4481 23.3496L58.9601 27.5576H58.2081L59.1601 19.5736H59.5041C59.6908 19.5736 59.7841 19.6696 59.7841 19.8616L59.5601 22.1576ZM72.1381 20.2216C71.9781 20.163 71.8128 20.123 71.6421 20.1016C71.4715 20.075 71.2981 20.0616 71.1221 20.0616C70.5888 20.0616 70.0795 20.1923 69.5941 20.4536C69.1088 20.715 68.6821 21.0643 68.3141 21.5016C67.9461 21.939 67.6528 22.4403 67.4341 23.0056C67.2155 23.571 67.1061 24.1576 67.1061 24.7656C67.1061 25.4803 67.2261 26.0376 67.4661 26.4376C67.7115 26.8323 68.0901 27.0296 68.6021 27.0296C68.9061 27.0296 69.2048 26.9443 69.4981 26.7736C69.7915 26.603 70.0715 26.363 70.3381 26.0536C70.6101 25.7443 70.8635 25.3736 71.0981 24.9416C71.3328 24.5043 71.5435 24.0216 71.7301 23.4936L72.1381 20.2216ZM71.6181 24.7896C71.4155 25.2163 71.1915 25.6083 70.9461 25.9656C70.7061 26.3176 70.4475 26.619 70.1701 26.8696C69.8928 27.1203 69.6021 27.315 69.2981 27.4536C68.9941 27.5923 68.6795 27.6616 68.3541 27.6616C68.0235 27.6616 67.7301 27.5976 67.4741 27.4696C67.2235 27.3363 67.0128 27.1496 66.8421 26.9096C66.6768 26.6696 66.5515 26.379 66.4661 26.0376C66.3808 25.6963 66.3381 25.3123 66.3381 24.8856C66.3381 24.4216 66.3968 23.9683 66.5141 23.5256C66.6368 23.0776 66.8048 22.6536 67.0181 22.2536C67.2315 21.8536 67.4875 21.4856 67.7861 21.1496C68.0848 20.8136 68.4155 20.523 68.7781 20.2776C69.1408 20.0323 69.5275 19.8403 69.9381 19.7016C70.3488 19.563 70.7728 19.4936 71.2101 19.4936C71.5248 19.4936 71.8208 19.523 72.0981 19.5816C72.3808 19.635 72.6555 19.731 72.9221 19.8696L71.9861 27.5576H71.6181C71.5115 27.5576 71.4395 27.5283 71.4021 27.4696C71.3648 27.411 71.3461 27.3443 71.3461 27.2696L71.6181 24.7896ZM74.9949 26.2216C74.9949 26.1896 74.9949 26.1496 74.9949 26.1016C75.0002 26.0536 75.0055 25.9816 75.0109 25.8856C75.0215 25.7896 75.0349 25.667 75.0509 25.5176C75.0669 25.363 75.0909 25.1683 75.1229 24.9336L75.6669 20.4136H74.6189C74.5655 20.4136 74.5229 20.3976 74.4909 20.3656C74.4589 20.3336 74.4482 20.2883 74.4589 20.2296L74.4989 19.9336L75.7549 19.8376L76.2829 16.9896C76.2935 16.9416 76.3175 16.899 76.3549 16.8616C76.3922 16.8243 76.4375 16.8056 76.4909 16.8056H76.8589L76.4829 19.8456H78.7869L78.7229 20.4136H76.4189L75.8669 24.9096C75.8402 25.1283 75.8162 25.307 75.7949 25.4456C75.7789 25.5843 75.7655 25.699 75.7549 25.7896C75.7495 25.875 75.7442 25.939 75.7389 25.9816C75.7389 26.0243 75.7389 26.0563 75.7389 26.0776C75.7389 26.4243 75.8189 26.675 75.9789 26.8296C76.1442 26.9843 76.3549 27.0616 76.6109 27.0616C76.7869 27.0616 76.9415 27.035 77.0749 26.9816C77.2135 26.923 77.3335 26.8616 77.4349 26.7976C77.5362 26.7283 77.6189 26.667 77.6829 26.6136C77.7469 26.555 77.7949 26.5256 77.8269 26.5256C77.8802 26.5256 77.9202 26.5523 77.9469 26.6056L78.0909 26.9416C77.8775 27.1656 77.6189 27.347 77.3149 27.4856C77.0109 27.619 76.7069 27.6856 76.4029 27.6856C75.9655 27.6856 75.6215 27.5656 75.3709 27.3256C75.1255 27.0856 75.0002 26.7176 74.9949 26.2216ZM86.624 19.5976L85.664 27.5576H85.312C85.2107 27.5576 85.136 27.531 85.088 27.4776C85.0453 27.4243 85.024 27.3523 85.024 27.2616L85.264 24.9976C85.0453 25.419 84.8053 25.795 84.544 26.1256C84.2827 26.4563 84.0053 26.7363 83.712 26.9656C83.424 27.1896 83.1227 27.363 82.808 27.4856C82.4987 27.603 82.1893 27.6616 81.88 27.6616C81.1973 27.6616 80.7093 27.4003 80.416 26.8776C80.1227 26.3496 80.0347 25.611 80.152 24.6616L80.752 19.5976H81.504L80.904 24.6616C80.8133 25.4243 80.864 26.011 81.056 26.4216C81.248 26.827 81.608 27.0296 82.136 27.0296C82.4293 27.0296 82.7253 26.955 83.024 26.8056C83.328 26.6563 83.6213 26.443 83.904 26.1656C84.1867 25.883 84.4533 25.547 84.704 25.1576C84.9547 24.763 85.176 24.3203 85.368 23.8296L85.872 19.5976H86.624ZM89.474 22.2216C89.6927 21.699 89.93 21.2456 90.186 20.8616C90.4473 20.4776 90.722 20.1736 91.01 19.9496C91.3033 19.7256 91.6073 19.587 91.922 19.5336C92.2367 19.4803 92.5567 19.5176 92.882 19.6456L92.746 20.3576C92.3833 20.219 92.0393 20.187 91.714 20.2616C91.3887 20.331 91.082 20.5016 90.794 20.7736C90.5113 21.0403 90.2473 21.403 90.002 21.8616C89.762 22.3203 89.546 22.8643 89.354 23.4936L88.866 27.5576H88.122L89.082 19.5736H89.426C89.6127 19.5736 89.706 19.6696 89.706 19.8616L89.474 22.2216ZM100.276 19.5976L94.748 30.1496C94.6733 30.299 94.564 30.3736 94.42 30.3736H93.884L95.564 27.2536L93.428 19.5976H94.02C94.0947 19.5976 94.1507 19.6163 94.188 19.6536C94.2253 19.6856 94.2493 19.731 94.26 19.7896L95.94 25.9816C95.9613 26.0616 95.9747 26.1416 95.98 26.2216C95.9907 26.3016 96.0013 26.3816 96.012 26.4616C96.044 26.3816 96.0787 26.3016 96.116 26.2216C96.1533 26.1416 96.1907 26.0616 96.228 25.9816L99.436 19.7656C99.4627 19.707 99.5 19.6643 99.548 19.6376C99.596 19.6109 99.644 19.5976 99.692 19.5976H100.276Z" fill="white"/>
</svg>
