<svg width="386" height="120" viewBox="0 0 386 120" fill="none" xmlns="http://www.w3.org/2000/svg">
<path d="M88.2305 88.3433C92.0478 84.526 93.3389 79.1392 92.1039 74.2602C96.9864 75.5008 102.379 74.2108 106.2 70.3901C111.968 64.6218 111.968 55.2696 106.2 49.5013C102.402 45.7031 97.0499 44.4059 92.1904 45.6095C93.274 40.8272 91.954 35.6104 88.2305 31.8869C84.4047 28.061 79.0022 26.7727 74.1146 28.0219C75.4098 23.1064 74.1306 17.6534 70.2771 13.7999C64.5088 8.03156 55.1565 8.03156 49.3882 13.7999C45.5576 17.6305 44.2708 23.0417 45.5279 27.9342C40.7371 26.8377 35.5056 28.1553 31.774 31.8869C28.0502 35.6107 26.7303 40.8281 27.8144 45.6107C22.9536 44.405 17.5993 45.7019 13.7999 49.5013C8.03156 55.2696 8.03156 64.6218 13.7999 70.3901C17.6218 74.2121 23.0172 75.5017 27.9009 74.2589C26.6654 79.1383 27.9564 84.5257 31.774 88.3433C35.4899 92.0592 40.6931 93.3813 45.4674 92.3097C44.3142 97.1373 45.6211 102.433 49.3882 106.2C55.1565 111.968 64.5088 111.968 70.2771 106.2C74.0664 102.411 75.3664 97.0747 74.1772 92.2241C79.0483 93.4464 84.421 92.1528 88.2305 88.3433Z" fill="#448585"/>
<path d="M71.14 79.42C73.62 79.42 75.52 78.82 76.84 77.62C78.16 76.4067 78.82 74.6933 78.82 72.48C78.82 71.7067 78.68 71.0133 78.4 70.4C78.1333 69.7733 77.7333 69.24 77.2 68.8C76.68 68.36 76.0333 68.02 75.26 67.78C74.5 67.54 73.6267 67.42 72.64 67.42H66.14L64.66 79.42H71.14ZM67.76 54.28L66.32 65.98H71.9C73.1933 65.98 74.3133 65.7867 75.26 65.4C76.2067 65.0133 76.9867 64.5067 77.6 63.88C78.2133 63.24 78.6667 62.5133 78.96 61.7C79.2533 60.8867 79.4 60.0467 79.4 59.18C79.4 57.5933 78.9 56.38 77.9 55.54C76.9133 54.7 75.3867 54.28 73.32 54.28H67.76ZM73.5 52.7C74.86 52.7 76.0333 52.84 77.02 53.12C78.0067 53.4 78.8267 53.8067 79.48 54.34C80.1333 54.86 80.6133 55.5 80.92 56.26C81.24 57.02 81.4 57.88 81.4 58.84C81.4 59.7467 81.2533 60.6133 80.96 61.44C80.68 62.2533 80.2667 63 79.72 63.68C79.1867 64.3467 78.5267 64.9267 77.74 65.42C76.9667 65.9133 76.0933 66.28 75.12 66.52C76.9733 66.8267 78.38 67.4867 79.34 68.5C80.3133 69.5 80.8 70.8067 80.8 72.42C80.8 73.7267 80.5733 74.9133 80.12 75.98C79.68 77.0333 79.0333 77.9333 78.18 78.68C77.34 79.4267 76.3133 80 75.1 80.4C73.8867 80.8 72.5133 81 70.98 81H62.48L65.96 52.7H73.5ZM94.6631 62.22C93.5965 62.22 92.6298 62.4467 91.7631 62.9C90.9098 63.34 90.1498 63.94 89.4831 64.7C88.8298 65.46 88.2765 66.34 87.8231 67.34C87.3831 68.3267 87.0565 69.36 86.8431 70.44C88.5365 70.2533 89.9965 70.04 91.2231 69.8C92.4498 69.5467 93.4898 69.2867 94.3431 69.02C95.1965 68.74 95.8898 68.44 96.4231 68.12C96.9565 67.8 97.3631 67.4733 97.6431 67.14C97.9365 66.7933 98.1298 66.44 98.2231 66.08C98.3298 65.72 98.3831 65.3467 98.3831 64.96C98.3831 64.68 98.3165 64.38 98.1831 64.06C98.0631 63.7267 97.8565 63.4267 97.5631 63.16C97.2698 62.8933 96.8831 62.6733 96.4031 62.5C95.9365 62.3133 95.3565 62.22 94.6631 62.22ZM99.5631 77.3C98.9098 77.9933 98.2698 78.5933 97.6431 79.1C97.0298 79.5933 96.4031 80 95.7631 80.32C95.1365 80.64 94.4831 80.8733 93.8031 81.02C93.1231 81.18 92.3965 81.26 91.6231 81.26C90.5165 81.26 89.5298 81.08 88.6631 80.72C87.8098 80.3467 87.0898 79.8267 86.5031 79.16C85.9165 78.48 85.4698 77.66 85.1631 76.7C84.8565 75.7267 84.7031 74.64 84.7031 73.44C84.7031 72.44 84.8031 71.4333 85.0031 70.42C85.2031 69.4067 85.4965 68.4333 85.8831 67.5C86.2831 66.5667 86.7698 65.6933 87.3431 64.88C87.9298 64.0667 88.5965 63.36 89.3431 62.76C90.0898 62.16 90.9165 61.6867 91.8231 61.34C92.7298 60.9933 93.7098 60.82 94.7631 60.82C95.7365 60.82 96.5565 60.96 97.2231 61.24C97.9031 61.5067 98.4498 61.8467 98.8631 62.26C99.2898 62.66 99.5965 63.1 99.7831 63.58C99.9698 64.0467 100.063 64.4867 100.063 64.9C100.063 65.4467 99.9898 65.9667 99.8431 66.46C99.6965 66.9533 99.4365 67.42 99.0631 67.86C98.6898 68.3 98.1831 68.7133 97.5431 69.1C96.9031 69.4867 96.0831 69.8467 95.0831 70.18C94.0965 70.5 92.9098 70.7933 91.5231 71.06C90.1365 71.3267 88.5098 71.56 86.6431 71.76C86.6165 72.0267 86.5898 72.3 86.5631 72.58C86.5498 72.86 86.5431 73.1333 86.5431 73.4C86.5431 75.3867 86.9898 76.94 87.8831 78.06C88.7898 79.18 90.1498 79.74 91.9631 79.74C92.6698 79.74 93.3031 79.6667 93.8631 79.52C94.4365 79.36 94.9431 79.16 95.3831 78.92C95.8365 78.68 96.2298 78.4267 96.5631 78.16C96.9098 77.8933 97.2165 77.64 97.4831 77.4C97.7498 77.16 97.9765 76.9667 98.1631 76.82C98.3631 76.66 98.5431 76.58 98.7031 76.58C98.8631 76.58 99.0031 76.6467 99.1231 76.78L99.5631 77.3ZM118.113 61.1L118.013 61.9C118 62.1533 117.873 62.4067 117.633 62.66L104.213 79.5H115.393L115.233 81H101.753L101.833 80.24C101.833 80.1333 101.866 80.0133 101.933 79.88C102 79.7467 102.086 79.62 102.193 79.5L115.653 62.6H104.593L104.793 61.1H118.113ZM142.495 63.54C142.388 63.7267 142.241 63.82 142.055 63.82C141.921 63.82 141.755 63.74 141.555 63.58C141.368 63.4067 141.108 63.22 140.775 63.02C140.455 62.8067 140.048 62.62 139.555 62.46C139.061 62.2867 138.448 62.2 137.715 62.2C137.035 62.2 136.388 62.3133 135.775 62.54C135.175 62.7667 134.648 63.0733 134.195 63.46C133.755 63.8333 133.401 64.2733 133.135 64.78C132.881 65.2733 132.755 65.8 132.755 66.36C132.755 66.9067 132.881 67.3667 133.135 67.74C133.388 68.1133 133.721 68.44 134.135 68.72C134.561 68.9867 135.035 69.22 135.555 69.42C136.088 69.62 136.635 69.82 137.195 70.02C137.755 70.22 138.295 70.4467 138.815 70.7C139.348 70.94 139.821 71.2333 140.235 71.58C140.661 71.9267 141.001 72.3533 141.255 72.86C141.508 73.3533 141.635 73.9533 141.635 74.66C141.635 75.5133 141.461 76.34 141.115 77.14C140.781 77.94 140.295 78.6533 139.655 79.28C139.028 79.8933 138.268 80.3867 137.375 80.76C136.495 81.1333 135.508 81.32 134.415 81.32C133.135 81.32 132.055 81.1 131.175 80.66C130.308 80.2067 129.561 79.62 128.935 78.9L129.415 78.22C129.561 78.0067 129.741 77.9 129.955 77.9C130.088 77.9 130.255 78.0067 130.455 78.22C130.655 78.4333 130.928 78.6733 131.275 78.94C131.621 79.1933 132.068 79.4267 132.615 79.64C133.161 79.8533 133.848 79.96 134.675 79.96C135.475 79.96 136.195 79.8333 136.835 79.58C137.488 79.3133 138.041 78.9533 138.495 78.5C138.961 78.0467 139.321 77.5267 139.575 76.94C139.828 76.34 139.955 75.7067 139.955 75.04C139.955 74.4533 139.828 73.96 139.575 73.56C139.321 73.16 138.981 72.82 138.555 72.54C138.141 72.2467 137.668 72 137.135 71.8C136.615 71.6 136.075 71.4067 135.515 71.22C134.955 71.02 134.408 70.8067 133.875 70.58C133.355 70.34 132.881 70.0533 132.455 69.72C132.041 69.3867 131.708 68.98 131.455 68.5C131.201 68.02 131.075 67.4333 131.075 66.74C131.075 65.9667 131.241 65.2267 131.575 64.52C131.908 63.8 132.375 63.1667 132.975 62.62C133.575 62.06 134.288 61.62 135.115 61.3C135.955 60.9667 136.868 60.8 137.855 60.8C138.975 60.8 139.941 60.9733 140.755 61.32C141.581 61.6667 142.315 62.1867 142.955 62.88L142.495 63.54ZM147.318 77.66C147.318 77.58 147.318 77.48 147.318 77.36C147.331 77.24 147.344 77.06 147.358 76.82C147.384 76.58 147.418 76.2733 147.458 75.9C147.498 75.5133 147.558 75.0267 147.638 74.44L148.998 63.14H146.378C146.244 63.14 146.138 63.1 146.058 63.02C145.978 62.94 145.951 62.8267 145.978 62.68L146.078 61.94L149.218 61.7L150.538 54.58C150.564 54.46 150.624 54.3533 150.718 54.26C150.811 54.1667 150.924 54.12 151.058 54.12H151.978L151.038 61.72H156.798L156.638 63.14H150.878L149.498 74.38C149.431 74.9267 149.371 75.3733 149.318 75.72C149.278 76.0667 149.244 76.3533 149.218 76.58C149.204 76.7933 149.191 76.9533 149.178 77.06C149.178 77.1667 149.178 77.2467 149.178 77.3C149.178 78.1667 149.378 78.7933 149.778 79.18C150.191 79.5667 150.718 79.76 151.358 79.76C151.798 79.76 152.184 79.6933 152.518 79.56C152.864 79.4133 153.164 79.26 153.418 79.1C153.671 78.9267 153.878 78.7733 154.038 78.64C154.198 78.4933 154.318 78.42 154.398 78.42C154.531 78.42 154.631 78.4867 154.698 78.62L155.058 79.46C154.524 80.02 153.878 80.4733 153.118 80.82C152.358 81.1533 151.598 81.32 150.838 81.32C149.744 81.32 148.884 81.02 148.258 80.42C147.644 79.82 147.331 78.9 147.318 77.66ZM162.891 67.66C163.437 66.3533 164.031 65.22 164.671 64.26C165.324 63.3 166.011 62.54 166.731 61.98C167.464 61.42 168.224 61.0733 169.011 60.94C169.797 60.8067 170.597 60.9 171.411 61.22L171.071 63C170.164 62.6533 169.304 62.5733 168.491 62.76C167.677 62.9333 166.911 63.36 166.191 64.04C165.484 64.7067 164.824 65.6133 164.211 66.76C163.611 67.9067 163.071 69.2667 162.591 70.84L161.371 81H159.511L161.911 61.04H162.771C163.237 61.04 163.471 61.28 163.471 61.76L162.891 67.66ZM181.421 62.22C180.354 62.22 179.388 62.4467 178.521 62.9C177.668 63.34 176.908 63.94 176.241 64.7C175.588 65.46 175.034 66.34 174.581 67.34C174.141 68.3267 173.814 69.36 173.601 70.44C175.294 70.2533 176.754 70.04 177.981 69.8C179.208 69.5467 180.248 69.2867 181.101 69.02C181.954 68.74 182.648 68.44 183.181 68.12C183.714 67.8 184.121 67.4733 184.401 67.14C184.694 66.7933 184.888 66.44 184.981 66.08C185.088 65.72 185.141 65.3467 185.141 64.96C185.141 64.68 185.074 64.38 184.941 64.06C184.821 63.7267 184.614 63.4267 184.321 63.16C184.028 62.8933 183.641 62.6733 183.161 62.5C182.694 62.3133 182.114 62.22 181.421 62.22ZM186.321 77.3C185.668 77.9933 185.028 78.5933 184.401 79.1C183.788 79.5933 183.161 80 182.521 80.32C181.894 80.64 181.241 80.8733 180.561 81.02C179.881 81.18 179.154 81.26 178.381 81.26C177.274 81.26 176.288 81.08 175.421 80.72C174.568 80.3467 173.848 79.8267 173.261 79.16C172.674 78.48 172.228 77.66 171.921 76.7C171.614 75.7267 171.461 74.64 171.461 73.44C171.461 72.44 171.561 71.4333 171.761 70.42C171.961 69.4067 172.254 68.4333 172.641 67.5C173.041 66.5667 173.528 65.6933 174.101 64.88C174.688 64.0667 175.354 63.36 176.101 62.76C176.848 62.16 177.674 61.6867 178.581 61.34C179.488 60.9933 180.468 60.82 181.521 60.82C182.494 60.82 183.314 60.96 183.981 61.24C184.661 61.5067 185.208 61.8467 185.621 62.26C186.048 62.66 186.354 63.1 186.541 63.58C186.728 64.0467 186.821 64.4867 186.821 64.9C186.821 65.4467 186.748 65.9667 186.601 66.46C186.454 66.9533 186.194 67.42 185.821 67.86C185.448 68.3 184.941 68.7133 184.301 69.1C183.661 69.4867 182.841 69.8467 181.841 70.18C180.854 70.5 179.668 70.7933 178.281 71.06C176.894 71.3267 175.268 71.56 173.401 71.76C173.374 72.0267 173.348 72.3 173.321 72.58C173.308 72.86 173.301 73.1333 173.301 73.4C173.301 75.3867 173.748 76.94 174.641 78.06C175.548 79.18 176.908 79.74 178.721 79.74C179.428 79.74 180.061 79.6667 180.621 79.52C181.194 79.36 181.701 79.16 182.141 78.92C182.594 78.68 182.988 78.4267 183.321 78.16C183.668 77.8933 183.974 77.64 184.241 77.4C184.508 77.16 184.734 76.9667 184.921 76.82C185.121 76.66 185.301 76.58 185.461 76.58C185.621 76.58 185.761 76.6467 185.881 76.78L186.321 77.3ZM202.651 63.54C202.544 63.7267 202.398 63.82 202.211 63.82C202.078 63.82 201.911 63.74 201.711 63.58C201.524 63.4067 201.264 63.22 200.931 63.02C200.611 62.8067 200.204 62.62 199.711 62.46C199.218 62.2867 198.604 62.2 197.871 62.2C197.191 62.2 196.544 62.3133 195.931 62.54C195.331 62.7667 194.804 63.0733 194.351 63.46C193.911 63.8333 193.558 64.2733 193.291 64.78C193.038 65.2733 192.911 65.8 192.911 66.36C192.911 66.9067 193.038 67.3667 193.291 67.74C193.544 68.1133 193.878 68.44 194.291 68.72C194.718 68.9867 195.191 69.22 195.711 69.42C196.244 69.62 196.791 69.82 197.351 70.02C197.911 70.22 198.451 70.4467 198.971 70.7C199.504 70.94 199.978 71.2333 200.391 71.58C200.818 71.9267 201.158 72.3533 201.411 72.86C201.664 73.3533 201.791 73.9533 201.791 74.66C201.791 75.5133 201.618 76.34 201.271 77.14C200.938 77.94 200.451 78.6533 199.811 79.28C199.184 79.8933 198.424 80.3867 197.531 80.76C196.651 81.1333 195.664 81.32 194.571 81.32C193.291 81.32 192.211 81.1 191.331 80.66C190.464 80.2067 189.718 79.62 189.091 78.9L189.571 78.22C189.718 78.0067 189.898 77.9 190.111 77.9C190.244 77.9 190.411 78.0067 190.611 78.22C190.811 78.4333 191.084 78.6733 191.431 78.94C191.778 79.1933 192.224 79.4267 192.771 79.64C193.318 79.8533 194.004 79.96 194.831 79.96C195.631 79.96 196.351 79.8333 196.991 79.58C197.644 79.3133 198.198 78.9533 198.651 78.5C199.118 78.0467 199.478 77.5267 199.731 76.94C199.984 76.34 200.111 75.7067 200.111 75.04C200.111 74.4533 199.984 73.96 199.731 73.56C199.478 73.16 199.138 72.82 198.711 72.54C198.298 72.2467 197.824 72 197.291 71.8C196.771 71.6 196.231 71.4067 195.671 71.22C195.111 71.02 194.564 70.8067 194.031 70.58C193.511 70.34 193.038 70.0533 192.611 69.72C192.198 69.3867 191.864 68.98 191.611 68.5C191.358 68.02 191.231 67.4333 191.231 66.74C191.231 65.9667 191.398 65.2267 191.731 64.52C192.064 63.8 192.531 63.1667 193.131 62.62C193.731 62.06 194.444 61.62 195.271 61.3C196.111 60.9667 197.024 60.8 198.011 60.8C199.131 60.8 200.098 60.9733 200.911 61.32C201.738 61.6667 202.471 62.1867 203.111 62.88L202.651 63.54ZM222.914 61.1L220.514 81H219.634C219.381 81 219.194 80.9333 219.074 80.8C218.967 80.6667 218.914 80.4867 218.914 80.26L219.514 74.6C218.967 75.6533 218.367 76.5933 217.714 77.42C217.061 78.2467 216.367 78.9467 215.634 79.52C214.914 80.08 214.161 80.5133 213.374 80.82C212.601 81.1133 211.827 81.26 211.054 81.26C209.347 81.26 208.127 80.6067 207.394 79.3C206.661 77.98 206.441 76.1333 206.734 73.76L208.234 61.1H210.114L208.614 73.76C208.387 75.6667 208.514 77.1333 208.994 78.16C209.474 79.1733 210.374 79.68 211.694 79.68C212.427 79.68 213.167 79.4933 213.914 79.12C214.674 78.7467 215.407 78.2133 216.114 77.52C216.821 76.8133 217.487 75.9733 218.114 75C218.741 74.0133 219.294 72.9067 219.774 71.68L221.034 61.1H222.914Z" fill="white"/>
</svg>
