<svg width="60" height="50" viewBox="0 0 60 50" fill="none" xmlns="http://www.w3.org/2000/svg">
<path d="M45 0C40.8581 0 37.1081 1.67906 34.3941 4.39406L30.6637 8.1075C30.2972 8.47406 29.7047 8.47406 29.3381 8.1075C29.3381 8.1075 25.6153 4.38563 25.6078 4.39406C22.8919 1.67906 19.1419 0 15 0C6.71531 0 0 6.71531 0 15C0 18.1294 0.96 21.0338 2.59969 23.4375C2.59969 23.4375 3.28781 24.5287 4.10156 25.3416C4.91531 26.1544 27.3488 48.5887 27.3488 48.5887C28.0809 49.3209 29.0409 49.6875 30 49.6875C30.9591 49.6875 31.9191 49.3209 32.6512 48.5887C32.6512 48.5887 55.0856 26.1544 55.8984 25.3416C56.7113 24.5287 57.4003 23.4375 57.4003 23.4375C59.04 21.0338 60 18.1294 60 15C60 6.71531 53.2847 0 45 0ZM55.0444 23.4159C55.0444 23.4159 54.4706 24.1191 53.3353 25.2544C52.2 26.3897 31.3256 47.2631 31.3256 47.2631C30.9591 47.6297 30.48 47.8125 30 47.8125C29.52 47.8125 29.0409 47.6297 28.6744 47.2631C28.6744 47.2631 7.8 26.3888 6.66469 25.2534C5.52938 24.1181 4.95562 23.415 4.95562 23.415C3.04219 21.1359 1.875 18.21 1.875 15C1.875 7.75125 7.75125 1.875 15 1.875C18.6244 1.875 21.9056 3.34312 24.2803 5.71969L24.2888 5.71125L28.6744 10.0959C29.4066 10.8281 30.5934 10.8281 31.3256 10.0959L35.7113 5.71125L35.7197 5.71969C38.0944 3.34312 41.3756 1.875 45 1.875C52.2487 1.875 58.125 7.75125 58.125 15C58.125 18.21 56.9578 21.1359 55.0444 23.4159Z" fill="#292929"/>
<path d="M45 5.625C44.4816 5.625 44.0625 6.04406 44.0625 6.5625C44.0625 7.08094 44.4816 7.5 45 7.5C49.1419 7.5 52.5 10.8581 52.5 15C52.5 15.5184 52.9191 15.9375 53.4375 15.9375C53.9559 15.9375 54.375 15.5184 54.375 15C54.375 9.82313 50.1769 5.625 45 5.625Z" fill="#292929"/>
</svg>
