<svg width="60" height="60" viewBox="0 0 60 60" fill="none" xmlns="http://www.w3.org/2000/svg">
<path d="M47.0625 29.5312H50.25C51.4687 29.5312 52.5 30.4687 52.5 31.6875V55.5C52.5 56.7188 51.4687 57.6562 50.25 57.6562H34.875" stroke="#292929" stroke-width="1.875"/>
<path d="M25.2187 57.6562H9.75C8.53125 57.6562 7.5 56.7188 7.5 55.5V31.6875C7.5 30.4687 8.53125 29.5312 9.75 29.5312H12" stroke="#292929" stroke-width="1.875"/>
<path d="M23.3438 57.6562V42C23.3438 40.7812 24.375 39.8438 25.5937 39.8438H34.4063C35.625 39.8438 36.6562 40.7812 36.6562 42V57.6562" stroke="#292929" stroke-width="1.875"/>
<path d="M10.5938 29.5312H0.9375C0.9375 28.3125 0.9375 27.375 2.0625 26.25L30 3.28125L40.2188 12.0937V8.25C40.2188 7.03125 41.1562 6.09375 42.2812 6.09375H47.5313C48.6563 6.09375 49.6875 7.03125 49.6875 8.25V20.1562L57.9375 26.25C59.0625 27.375 59.0625 28.3125 59.0625 29.5312H48.4688" stroke="#292929" stroke-width="1.875"/>
</svg>
