<svg width="52" height="48" viewBox="0 0 52 48" fill="none" xmlns="http://www.w3.org/2000/svg">
<path d="M6.28418 11.9307C8.64138 14.0383 11.3199 15.9952 13.8457 17.9395C16.7449 20.1712 19.4636 22.4 21.5088 24.9229C23.5392 27.4276 24.8762 30.1884 25.0547 33.4893C25.2338 36.803 24.2519 40.7821 21.416 45.7266L21.4062 45.7451C21.2282 46.0713 21.03 46.386 20.8174 46.6914L20.2822 47H19.4141C19.237 47 19.0458 46.9816 18.8105 46.9531C18.7936 46.9511 18.7767 46.9504 18.7598 46.9492C10.4955 44.9319 4.64246 41.0363 2.2373 35.2812C-0.100956 29.6859 0.68028 22.002 6.28418 11.9307ZM47.0928 1.53223C52.33 15.6576 51.9759 25.901 47.9619 32.8887C44.1379 39.5455 36.8369 43.5124 27.1592 44.9961C27.4408 44.4705 27.6855 43.9196 27.8936 43.3613C28.4001 42.0021 28.7309 40.5446 28.9492 39.2217C29.168 37.8957 29.2766 36.6822 29.3311 35.8008C29.3583 35.3595 29.372 34.9994 29.3789 34.748C29.3824 34.6223 29.3849 34.5233 29.3857 34.4551C29.3862 34.421 29.3866 34.3945 29.3867 34.376V34.3457L28.3867 34.3447H29.3867C29.3867 32.0514 28.8865 29.7561 27.7666 27.7021C26.3114 25.0332 23.904 20.9841 21.4229 18.5098C24.3714 14.8643 28.5992 12.0421 33.2637 9.38672C37.7815 6.81483 42.7713 4.3683 47.0928 1.53223Z" stroke="#292929" stroke-width="2" stroke-linejoin="round"/>
</svg>
