<svg width="120" height="120" viewBox="0 0 120 120" fill="none" xmlns="http://www.w3.org/2000/svg">
<path d="M88.7685 14.8841C81.9281 14.8841 75.8251 18.0951 71.8362 23.1146L59.9999 36.1616V36.1193L48.1637 23.0723C44.1748 18.0528 38.0718 14.8418 31.2314 14.8418C19.2151 14.8418 9.47363 24.7467 9.47363 36.9656C9.47363 47.7023 18.4342 55.7273 24.9216 63.4367C31.3861 71.1172 37.8494 78.7964 44.3126 86.4769L58.8226 103.717C59.2155 104.183 59.6071 104.649 59.9999 105.115V105.158C60.3928 104.691 60.7844 104.225 61.1773 103.759C66.0135 98.0127 70.8498 92.2666 75.6873 86.5192C82.1505 78.8388 88.615 71.1595 95.0783 63.479C101.566 55.7708 110.526 47.7458 110.526 37.0079C110.526 24.789 100.785 14.8841 88.7685 14.8841Z" fill="#448585"/>
</svg>
