<svg width="120" height="120" viewBox="0 0 120 120" fill="none" xmlns="http://www.w3.org/2000/svg">
<path d="M88.2305 88.3433C92.0478 84.526 93.3389 79.1392 92.1039 74.2602C96.9864 75.5008 102.379 74.2108 106.2 70.3901C111.968 64.6218 111.968 55.2696 106.2 49.5013C102.402 45.7031 97.0499 44.4059 92.1904 45.6095C93.274 40.8272 91.954 35.6104 88.2305 31.8869C84.4047 28.061 79.0022 26.7727 74.1146 28.0219C75.4098 23.1064 74.1306 17.6534 70.2771 13.7999C64.5088 8.03156 55.1565 8.03156 49.3882 13.7999C45.5576 17.6305 44.2708 23.0417 45.5279 27.9342C40.7371 26.8377 35.5056 28.1553 31.774 31.8869C28.0502 35.6107 26.7303 40.8281 27.8144 45.6107C22.9536 44.405 17.5993 45.7019 13.7999 49.5013C8.03156 55.2696 8.03156 64.6218 13.7999 70.3901C17.6218 74.2121 23.0172 75.5017 27.9009 74.2589C26.6654 79.1383 27.9564 84.5257 31.774 88.3433C35.4899 92.0592 40.6931 93.3813 45.4674 92.3097C44.3142 97.1373 45.6211 102.433 49.3882 106.2C55.1565 111.968 64.5088 111.968 70.2771 106.2C74.0664 102.411 75.3664 97.0747 74.1772 92.2241C79.0483 93.4464 84.421 92.1528 88.2305 88.3433Z" fill="#448585"/>
</svg>
