<svg width="662" height="577" viewBox="0 0 662 577" fill="none" xmlns="http://www.w3.org/2000/svg">
<path d="M499.571 -96.0427C453.127 -81.8431 418.354 -47.3725 401.69 -5.01048L348.408 108.146L348.32 107.858L240.872 43.8424C203.368 18.0411 155.264 8.90831 108.82 23.1079C27.2318 48.0518 -18.3491 135.526 7.01525 218.489C29.3029 291.388 106.802 327.275 166.853 366.154C226.689 404.883 286.514 443.607 346.341 482.339L480.647 569.271C484.283 571.624 487.909 573.972 491.545 576.325L491.633 576.612C493.331 572.628 495.024 568.655 496.723 564.671C517.632 515.616 538.541 466.562 559.456 417.497C587.396 351.932 615.348 286.373 643.288 220.807C671.335 155.003 715.517 81.9147 693.227 9.00697C667.862 -73.9562 581.159 -120.987 499.571 -96.0427Z" fill="#448585"/>
</svg>
