<svg width="120" height="120" viewBox="0 0 120 120" fill="none" xmlns="http://www.w3.org/2000/svg">
<path d="M64.6009 36.8917C71.5387 2.01916 48.4696 2.01916 55.4074 36.8917C48.4696 2.01916 27.1558 10.8457 46.9103 40.4107C27.1558 10.8457 10.8452 27.1563 40.4102 46.9107C10.8452 27.1563 2.01867 48.4701 36.8913 55.4037C2.01867 48.4659 2.01867 71.535 36.8913 64.5972C2.01867 71.535 10.8494 92.8447 40.4102 73.0902C10.8494 92.8447 27.16 109.155 46.9103 79.5902C27.1558 109.151 48.4696 117.978 55.4032 83.1092C48.4654 117.982 71.5345 117.982 64.5967 83.1092C71.5345 117.982 92.8442 109.151 73.0897 79.5902C92.8442 109.151 109.155 92.8405 79.5898 73.0902C109.151 92.8447 117.977 71.5309 83.1087 64.5972C117.981 71.535 117.981 48.4659 83.1087 55.4037C117.981 48.4659 109.151 27.1563 79.5898 46.9107C109.151 27.1563 92.84 10.8457 73.0897 40.4107C92.8442 10.8499 71.5304 2.02333 64.5967 36.8917H64.6009Z" fill="#448585"/>
</svg>
