<svg width="24" height="24" viewBox="0 0 24 24" fill="none" xmlns="http://www.w3.org/2000/svg">
<path d="M7.33699 18.9178C7.22399 18.9178 7.11021 18.883 7.01424 18.8125C6.82228 18.6732 6.74101 18.4255 6.81532 18.1995L8.40434 13.3024L4.22629 10.266C4.03356 10.1259 3.95307 9.87824 4.02737 9.65224C4.10013 9.42623 4.31065 9.27375 4.54827 9.27375H9.71163L11.3006 4.37897C11.3742 4.15297 11.5847 4.00049 11.8223 4.00049C12.0607 4.00049 12.2705 4.15297 12.344 4.37897L13.9322 9.27375H19.0956C19.3332 9.27375 19.5437 9.42623 19.6173 9.65224C19.6908 9.87824 19.6103 10.1259 19.4184 10.266L15.2403 13.3024L16.8293 18.1995C16.9021 18.4255 16.8224 18.6732 16.6296 18.8125C16.4377 18.9534 16.1784 18.9518 15.9849 18.8125L11.8223 15.787L7.65898 18.8125C7.563 18.8822 7.45 18.9178 7.33699 18.9178Z" fill="#292929"/>
</svg>
